<?xml version="1.0" encoding="UTF-8"?>
<svg version="1.1" xmlns="http://www.w3.org/2000/svg" width="32" height="32">
<path d="M0 0 C2.97 0.495 2.97 0.495 6 1 C5.9175 2.19625 5.835 3.3925 5.75 4.625 C5.7254351 8.12549754 5.9504545 8.92568175 8 12 C10.77041398 16.15562097 10.70476018 18.06667872 10 23 C7.5 26 7.5 26 5 28 C4.01 27.67 3.02 27.34 2 27 C0.8125 24.4375 0.8125 24.4375 0 22 C-0.66 23.98 -1.32 25.96 -2 28 C-3.65 28.33 -5.3 28.66 -7 29 C-7.66666667 27.66666667 -8.33333333 26.33333333 -9 25 C-9.350625 24.3915625 -9.70125 23.783125 -10.0625 23.15625 C-11.14175999 20.67395203 -11.20416324 18.94155007 -11.125 16.25 C-11.10695313 15.45078125 -11.08890625 14.6515625 -11.0703125 13.828125 C-11.04710937 13.22484375 -11.02390625 12.6215625 -11 12 C-9.68 12 -8.36 12 -7 12 C-4.42446858 8.13670286 -2.07822282 4.15644563 0 0 Z M2 23 C3 25 3 25 3 25 Z " fill="#211319" transform="translate(16,1)"/>
<path d="M0 0 C0.12117188 0.61488281 0.24234375 1.22976562 0.3671875 1.86328125 C0.53476562 2.67152344 0.70234375 3.47976562 0.875 4.3125 C1.11863281 5.51326172 1.11863281 5.51326172 1.3671875 6.73828125 C1.94478999 9.25301118 1.94478999 9.25301118 4 12 C4 12.99 4 13.98 4 15 C3.443125 14.67 2.88625 14.34 2.3125 14 C-0.30284522 12.8690399 -2.1806646 12.84337026 -5 13 C-5 13.66 -5 14.32 -5 15 C-5.66 15 -6.32 15 -7 15 C-7.33 15.99 -7.66 16.98 -8 18 C-9.9375 17.375 -9.9375 17.375 -12 16 C-12.75 12.875 -12.75 12.875 -13 10 C-11.515 10.99 -11.515 10.99 -10 12 C-9.67386719 11.30132812 -9.34773437 10.60265625 -9.01171875 9.8828125 C-8.57472656 8.97273437 -8.13773438 8.06265625 -7.6875 7.125 C-7.04361328 5.76761719 -7.04361328 5.76761719 -6.38671875 4.3828125 C-4.76445866 1.59526699 -3.38503666 0 0 0 Z " fill="#934903" transform="translate(20,4)"/>
<path d="M0 0 C0 2.64 0 5.28 0 8 C-0.763125 8.28875 -1.52625 8.5775 -2.3125 8.875 C-5.15029308 9.96269013 -5.15029308 9.96269013 -8 12 C-7.74297526 7.6305794 -7.39976667 5.48177009 -4.5625 2.0625 C-2 0 -2 0 0 0 Z " fill="#F39211" transform="translate(20,4)"/>
<path d="M0 0 C2.96175123 0.61277612 4.38058783 1.25372522 7 3 C7.33 2.34 7.66 1.68 8 1 C8 2.98 8 4.96 8 7 C7.360625 7.103125 6.72125 7.20625 6.0625 7.3125 C5.381875 7.539375 4.70125 7.76625 4 8 C3.67 8.99 3.34 9.98 3 11 C3 9.68 3 8.36 3 7 C2.34 7 1.68 7 1 7 C0.67 4.69 0.34 2.38 0 0 Z " fill="#723705" transform="translate(17,16)"/>
<path d="M0 0 C0.268125 0.639375 0.53625 1.27875 0.8125 1.9375 C1.88667752 4.33131686 1.88667752 4.33131686 5 5 C5.33 4.34 5.66 3.68 6 3 C6.66 3 7.32 3 8 3 C7.33333333 5.66666667 6.66666667 8.33333333 6 11 C3.13275314 10.42655063 2.1385485 10.1385485 0 8 C-0.26991906 5.31160615 -0.08737357 2.70858064 0 0 Z " fill="#632E03" transform="translate(7,16)"/>
<path d="M0 0 C1 2 1 2 0.22265625 4.6015625 C-0.16019531 5.59929688 -0.54304687 6.59703125 -0.9375 7.625 C-1.31777344 8.62789062 -1.69804687 9.63078125 -2.08984375 10.6640625 C-2.39019531 11.43492188 -2.69054687 12.20578125 -3 13 C-3.99 12.01 -4.98 11.02 -6 10 C-6.33 12.97 -6.66 15.94 -7 19 C-9 17 -9 17 -9.1953125 14.8359375 C-9.17210937 14.02382813 -9.14890625 13.21171875 -9.125 12.375 C-9.10695313 11.55773438 -9.08890625 10.74046875 -9.0703125 9.8984375 C-9.04710937 9.27195312 -9.02390625 8.64546875 -9 8 C-7.68 8 -6.36 8 -5 8 C-3.24901874 5.37352812 -1.61268692 2.71224618 0 0 Z " fill="#19111D" transform="translate(14,5)"/>
<path d="M0 0 C2.10770759 2.88834003 3 4.38462395 3 8 C-0.7952131 6.50902342 -2.61042731 4.24299151 -5 1 C-3 0 -3 0 0 0 Z " fill="#E76F0A" transform="translate(21,11)"/>
<path d="M0 0 C0 2.83967231 -0.40267181 5.23735711 -1 8 C-2.65 8.33 -4.3 8.66 -6 9 C-7.0625 7.125 -7.0625 7.125 -8 5 C-7.67 4.34 -7.34 3.68 -7 3 C-5.35 3.99 -3.7 4.98 -2 6 C-1.855625 5.195625 -1.71125 4.39125 -1.5625 3.5625 C-1 1 -1 1 0 0 Z " fill="#0D0B15" transform="translate(15,21)"/>
<path d="M0 0 C2.97 0.495 2.97 0.495 6 1 C5.67 3.97 5.34 6.94 5 10 C4.67 10 4.34 10 4 10 C4 7.69 4 5.38 4 3 C2.35 3.66 0.7 4.32 -1 5 C-0.67 3.35 -0.34 1.7 0 0 Z " fill="#362A1A" transform="translate(16,1)"/>
<path d="M0 0 C0.66 0.33 1.32 0.66 2 1 C1.01 2.98 0.02 4.96 -1 7 C-2.32 7 -3.64 7 -5 7 C-3.75023244 3.34683329 -3.32901247 2.21934164 0 0 Z " fill="#F1D18C" transform="translate(18,4)"/>
<path d="M0 0 C1.485 0.99 1.485 0.99 3 2 C3 2.99 3 3.98 3 5 C3.99 5 4.98 5 6 5 C5.67 5.99 5.34 6.98 5 8 C3.0625 7.375 3.0625 7.375 1 6 C0.25 2.875 0.25 2.875 0 0 Z " fill="#D89220" transform="translate(7,14)"/>
<path d="M0 0 C0.33 0 0.66 0 1 0 C1 2.64 1 5.28 1 8 C0.67 8 0.34 8 0 8 C0 5.36 0 2.72 0 0 Z " fill="#7F1F00" transform="translate(27,16)"/>
<path d="M0 0 C0.66 1.32 1.32 2.64 2 4 C1.34 4 0.68 4 0 4 C0 2.68 0 1.36 0 0 Z " fill="#380000" transform="translate(15,24)"/>
<path d="M0 0 C0.33 0 0.66 0 1 0 C1 1.65 1 3.3 1 5 C0.67 5 0.34 5 0 5 C0 3.35 0 1.7 0 0 Z " fill="#2A1900" transform="translate(23,2)"/>
<path d="M0 0 C1 4 1 4 1 4 Z " fill="#000000" transform="translate(3,18)"/>
<path d="M0 0 C0 3 0 3 0 3 Z " fill="#351F00" transform="translate(9,10)"/>
<path d="M0 0 C4 1 4 1 4 1 Z " fill="#000000" transform="translate(18,0)"/>
<path d="M0 0 C3 1 3 1 3 1 Z " fill="#000000" transform="translate(11,30)"/>
<path d="" fill="#712A00" transform="translate(0,0)"/>
<path d="" fill="#FFFF00" transform="translate(0,0)"/>
<path d="M0 0 C2 1 2 1 2 1 Z " fill="#000000" transform="translate(19,30)"/>
<path d="" fill="#000000" transform="translate(0,0)"/>
<path d="" fill="#3F0000" transform="translate(0,0)"/>
<path d="" fill="#000000" transform="translate(0,0)"/>
<path d="" fill="#000000" transform="translate(0,0)"/>
<path d="" fill="#000000" transform="translate(0,0)"/>
<path d="M0 0 C2 1 2 1 2 1 Z " fill="#000000" transform="translate(6,10)"/>
<path d="" fill="#3F3F00" transform="translate(0,0)"/>
<path d="" fill="#000000" transform="translate(0,0)"/>
<path d="" fill="#000000" transform="translate(0,0)"/>
<path d="" fill="#000000" transform="translate(0,0)"/>
<path d="" fill="#000000" transform="translate(0,0)"/>
<path d="" fill="#000000" transform="translate(0,0)"/>
<path d="" fill="#000000" transform="translate(0,0)"/>
<path d="" fill="#000000" transform="translate(0,0)"/>
<path d="" fill="#000000" transform="translate(0,0)"/>
<path d="" fill="#000000" transform="translate(0,0)"/>
<path d="" fill="#000000" transform="translate(0,0)"/>
<path d="" fill="#000000" transform="translate(0,0)"/>
<path d="" fill="#000000" transform="translate(0,0)"/>
<path d="" fill="#000000" transform="translate(0,0)"/>
<path d="" fill="#000000" transform="translate(0,0)"/>
</svg>
