<?xml version="1.0" encoding="UTF-8"?>
<svg version="1.1" xmlns="http://www.w3.org/2000/svg" width="32" height="32">
<path d="M0 0 C5.09338347 0.56016845 6.85425641 2.51776648 10.2109375 6.171875 C11.00951172 6.98011719 11.00951172 6.98011719 11.82421875 7.8046875 C14.45876517 10.55319648 16.33565683 12.60994357 16.8359375 16.421875 C15.4609375 19.046875 15.4609375 19.046875 13.8359375 21.421875 C13.5059375 22.081875 13.1759375 22.741875 12.8359375 23.421875 C9.68905672 21.84843461 8.03628343 19.14335549 5.8359375 16.421875 C2.68133157 18.74143818 0.23473835 21.10812158 -2.1640625 24.171875 C-4.79770478 27.35674474 -4.79770478 27.35674474 -7.9765625 27.921875 C-10.1640625 27.421875 -10.1640625 27.421875 -11.1640625 26.421875 C-11.6780474 23.33796561 -11.75307868 21.26998374 -9.9296875 18.64453125 C-8.87114927 17.44712538 -7.79385066 16.26606453 -6.69921875 15.1015625 C-4.83041176 13.05681185 -3.48741033 10.84801268 -2.1640625 8.421875 C-2.8240625 7.761875 -3.4840625 7.101875 -4.1640625 6.421875 C-4.3515625 3.859375 -4.3515625 3.859375 -4.1640625 1.421875 C-3.1640625 0.421875 -3.1640625 0.421875 0 0 Z M-1.1640625 9.421875 C-0.1640625 11.421875 -0.1640625 11.421875 -0.1640625 11.421875 Z " fill="#404D4E" transform="translate(13.1640625,1.578125)"/>
<path d="M0 0 C5.09338347 0.56016845 6.85425641 2.51776648 10.2109375 6.171875 C11.00951172 6.98011719 11.00951172 6.98011719 11.82421875 7.8046875 C14.45876517 10.55319648 16.33565683 12.60994357 16.8359375 16.421875 C15.4609375 19.046875 15.4609375 19.046875 13.8359375 21.421875 C13.5059375 22.081875 13.1759375 22.741875 12.8359375 23.421875 C9.68905672 21.84843461 8.03628343 19.14335549 5.8359375 16.421875 C2.68133157 18.74143818 0.23473835 21.10812158 -2.1640625 24.171875 C-4.79770478 27.35674474 -4.79770478 27.35674474 -7.9765625 27.921875 C-10.1640625 27.421875 -10.1640625 27.421875 -11.1640625 26.421875 C-11.6780474 23.33796561 -11.75307868 21.26998374 -9.9296875 18.64453125 C-8.87114927 17.44712538 -7.79385066 16.26606453 -6.69921875 15.1015625 C-4.83041176 13.05681185 -3.48741033 10.84801268 -2.1640625 8.421875 C-2.8240625 7.761875 -3.4840625 7.101875 -4.1640625 6.421875 C-4.3515625 3.859375 -4.3515625 3.859375 -4.1640625 1.421875 C-3.1640625 0.421875 -3.1640625 0.421875 0 0 Z M-3.1640625 2.421875 C-2.58821818 4.80751577 -1.94178655 7.08870284 -1.1640625 9.421875 C-2.01953125 11.32421875 -2.01953125 11.32421875 -3.3515625 13.359375 C-3.81304688 14.06449219 -4.27453125 14.76960938 -4.75 15.49609375 C-6.1640625 17.421875 -6.1640625 17.421875 -8.4765625 19.671875 C-10.62681955 21.49659098 -10.62681955 21.49659098 -10.1640625 25.421875 C-7.88966713 25.88416669 -7.88966713 25.88416669 -5.1640625 25.421875 C-3.16138855 23.62093025 -1.55053645 21.97071173 0.1484375 19.921875 C0.60283203 19.39722656 1.05722656 18.87257813 1.52539062 18.33203125 C2.6416387 17.03953347 3.74054372 15.73209358 4.8359375 14.421875 C6.8159375 16.071875 8.7959375 17.721875 10.8359375 19.421875 C12.1559375 18.761875 13.4759375 18.101875 14.8359375 17.421875 C14.37418664 12.67610232 12.50459156 10.46770807 9.2109375 7.109375 C8.37304688 6.22636719 7.53515625 5.34335938 6.671875 4.43359375 C3.15956623 1.94207995 1.05047728 2.03163984 -3.1640625 2.421875 Z " fill="#131919" transform="translate(13.1640625,1.578125)"/>
<path d="M0 0 C-0.49563119 4.58458849 -2.20582356 6.91048163 -5.25 10.3125 C-6.01828125 11.19550781 -6.7865625 12.07851563 -7.578125 12.98828125 C-10 15 -10 15 -12.796875 15.29296875 C-13.52390625 15.19628906 -14.2509375 15.09960938 -15 15 C-14.61746856 9.94512026 -12.32634756 7.96625276 -8.625 4.6875 C-7.64789062 3.80449219 -6.67078125 2.92148438 -5.6640625 2.01171875 C-3 0 -3 0 0 0 Z " fill="#6A7D7F" transform="translate(18,12)"/>
<path d="M0 0 C4.148801 -0.52321674 5.6149948 -0.29604186 8.9921875 2.30078125 C9.96888693 3.28935945 10.92963264 4.29391805 11.875 5.3125 C12.37257813 5.81201172 12.87015625 6.31152344 13.3828125 6.82617188 C17 10.57751331 17 10.57751331 17 14 C12.01611963 12.79178658 9.84058727 9.68176515 6.71484375 5.90625 C4.73009614 3.6999702 2.62873661 2.35419765 0 1 C0 0.67 0 0.34 0 0 Z " fill="#EEF6F6" transform="translate(11,4)"/>
<path d="M0 0 C0.99 0.33 1.98 0.66 3 1 C1.23807715 2.84269011 -0.53351806 4.67390757 -2.3125 6.5 C-3.06176758 7.28697266 -3.06176758 7.28697266 -3.82617188 8.08984375 C-5.16089504 9.4510846 -6.5769384 10.73139516 -8 12 C-8.99 12 -9.98 12 -11 12 C-9.49650623 8.33213607 -7.36271208 6.31089607 -4.375 3.75 C-3.14910156 2.69039062 -3.14910156 2.69039062 -1.8984375 1.609375 C-1.27195312 1.07828125 -0.64546875 0.5471875 0 0 Z " fill="#E5E7E7" transform="translate(15,12)"/>
<path d="M0 0 C4.75 0.75 4.75 0.75 7 3 C7 3.99 7 4.98 7 6 C2.32307692 4.52307692 2.32307692 4.52307692 0.6875 1.875 C0.460625 1.25625 0.23375 0.6375 0 0 Z " fill="#DDE6E6" transform="translate(21,12)"/>
<path d="M0 0 C2.31 0 4.62 0 7 0 C7 0.33 7 0.66 7 1 C4.69 1 2.38 1 0 1 C0 0.67 0 0.34 0 0 Z " fill="#000000" transform="translate(10,0)"/>
<path d="M0 0 C0.33 0 0.66 0 1 0 C1 1.98 1 3.96 1 6 C0.67 6 0.34 6 0 6 C0 4.02 0 2.04 0 0 Z " fill="#000000" transform="translate(0,22)"/>
<path d="M0 0 C1.65 0 3.3 0 5 0 C5 0.33 5 0.66 5 1 C3.35 1 1.7 1 0 1 C0 0.67 0 0.34 0 0 Z " fill="#000000" transform="translate(3,30)"/>
<path d="M0 0 C0.33 0 0.66 0 1 0 C1 1.65 1 3.3 1 5 C0.67 5 0.34 5 0 5 C0 3.35 0 1.7 0 0 Z " fill="#002222" transform="translate(7,3)"/>
<path d="M0 0 C0 3 0 3 0 3 Z " fill="#000000" transform="translate(15,21)"/>
<path d="M0 0 C0.66 0 1.32 0 2 0 C1.67 0.66 1.34 1.32 1 2 C0.67 1.34 0.34 0.68 0 0 Z " fill="#000000" transform="translate(17,1)"/>
<path d="" fill="#7F7F7F" transform="translate(0,0)"/>
<path d="" fill="#000000" transform="translate(0,0)"/>
<path d="" fill="#7F7F7F" transform="translate(0,0)"/>
<path d="" fill="#000000" transform="translate(0,0)"/>
<path d="" fill="#000000" transform="translate(0,0)"/>
<path d="" fill="#000000" transform="translate(0,0)"/>
<path d="" fill="#000000" transform="translate(0,0)"/>
<path d="" fill="#000000" transform="translate(0,0)"/>
<path d="" fill="#000000" transform="translate(0,0)"/>
<path d="" fill="#000000" transform="translate(0,0)"/>
<path d="" fill="#000000" transform="translate(0,0)"/>
<path d="" fill="#000000" transform="translate(0,0)"/>
<path d="" fill="#000000" transform="translate(0,0)"/>
<path d="" fill="#000000" transform="translate(0,0)"/>
<path d="" fill="#000000" transform="translate(0,0)"/>
<path d="" fill="#000000" transform="translate(0,0)"/>
<path d="" fill="#000000" transform="translate(0,0)"/>
<path d="" fill="#000000" transform="translate(0,0)"/>
<path d="" fill="#000000" transform="translate(0,0)"/>
<path d="" fill="#000000" transform="translate(0,0)"/>
<path d="" fill="#000000" transform="translate(0,0)"/>
<path d="" fill="#000000" transform="translate(0,0)"/>
<path d="" fill="#000000" transform="translate(0,0)"/>
<path d="" fill="#000000" transform="translate(0,0)"/>
<path d="" fill="#000000" transform="translate(0,0)"/>
<path d="" fill="#000000" transform="translate(0,0)"/>
<path d="" fill="#000000" transform="translate(0,0)"/>
<path d="" fill="#000000" transform="translate(0,0)"/>
<path d="" fill="#000000" transform="translate(0,0)"/>
<path d="" fill="#000000" transform="translate(0,0)"/>
<path d="" fill="#000000" transform="translate(0,0)"/>
<path d="" fill="#000000" transform="translate(0,0)"/>
<path d="" fill="#000000" transform="translate(0,0)"/>
<path d="" fill="#000000" transform="translate(0,0)"/>
<path d="" fill="#000000" transform="translate(0,0)"/>
<path d="" fill="#000000" transform="translate(0,0)"/>
<path d="" fill="#000000" transform="translate(0,0)"/>
<path d="" fill="#000000" transform="translate(0,0)"/>
<path d="" fill="#000000" transform="translate(0,0)"/>
<path d="" fill="#000000" transform="translate(0,0)"/>
<path d="" fill="#000000" transform="translate(0,0)"/>
<path d="" fill="#000000" transform="translate(0,0)"/>
</svg>
