<?xml version="1.0" encoding="UTF-8"?>
<svg version="1.1" xmlns="http://www.w3.org/2000/svg" width="32" height="32">
<path d="M0 0 C1.9375 0.1875 1.9375 0.1875 4 1 C5.25 3.0625 5.25 3.0625 6 5 C6.33 4.01 6.66 3.02 7 2 C10.45785148 0.27107426 12.15720191 -0.27482546 15.875 0.9375 C18 3 18 3 18.5 6.375 C17.98395005 10.11636216 17.08112927 11.91992867 15 15 C14.835 15.7425 14.67 16.485 14.5 17.25 C14.335 17.8275 14.17 18.405 14 19 C13.01 19.33 12.02 19.66 11 20 C10.34 20.66 9.68 21.32 9 22 C8 23 7 24 6 25 C5.319375 25.804375 5.319375 25.804375 4.625 26.625 C2.39879894 28.50870859 0.90723384 28.86156029 -2 29 C-4.5703125 28.06640625 -4.5703125 28.06640625 -7 26 C-8.00082446 23.06567763 -8.2469292 20.14071692 -8.5 17.0625 C-8.59796875 16.25103516 -8.6959375 15.43957031 -8.796875 14.60351562 C-9.38169956 8.66267284 -9.38169956 8.66267284 -7.59375 5.55859375 C-7.0678125 5.04425781 -6.541875 4.52992187 -6 4 C-5.67 3.34 -5.34 2.68 -5 2 C-3.67696283 1.6278958 -2.34262065 1.29369827 -1 1 C-0.67 0.67 -0.34 0.34 0 0 Z M3 6 C2.01 7.485 2.01 7.485 1 9 C1.99 8.67 2.98 8.34 4 8 C3.67 7.34 3.34 6.68 3 6 Z M-6 13 C-5 15 -5 15 -5 15 Z " fill="#2D222F" transform="translate(12,3)"/>
<path d="M0 0 C1.9375 0.6875 1.9375 0.6875 3.9375 1.6875 C3.32880435 7.16576087 3.32880435 7.16576087 1.625 9.4375 C-2.35612605 12.38648226 -5.06713951 12.91456184 -10.0625 12.6875 C-10.0625 13.3475 -10.0625 14.0075 -10.0625 14.6875 C-9.4025 14.6875 -8.7425 14.6875 -8.0625 14.6875 C-8.0625 15.3475 -8.0625 16.0075 -8.0625 16.6875 C-10.0425 17.0175 -12.0225 17.3475 -14.0625 17.6875 C-14.0625 16.6975 -14.0625 15.7075 -14.0625 14.6875 C-13.4025 15.0175 -12.7425 15.3475 -12.0625 15.6875 C-12.0625 14.6975 -12.0625 13.7075 -12.0625 12.6875 C-13.0525 12.6875 -14.0425 12.6875 -15.0625 12.6875 C-14.4375 10.3125 -14.4375 10.3125 -13.0625 7.6875 C-11.07526732 6.98368843 -9.07472047 6.3163189 -7.0625 5.6875 C-5.83722052 3.73728917 -5.83722052 3.73728917 -5.0625 1.6875 C-2.0625 -0.3125 -2.0625 -0.3125 0 0 Z " fill="#CC6798" transform="translate(24.0625,7.3125)"/>
<path d="M0 0 C0.66 0.33 1.32 0.66 2 1 C1.01 2.485 1.01 2.485 0 4 C0.99 4 1.98 4 3 4 C3 4.99 3 5.98 3 7 C2.01 7.495 2.01 7.495 1 8 C2.98 8 4.96 8 7 8 C7 7.34 7 6.68 7 6 C6.34 6 5.68 6 5 6 C5 5.34 5 4.68 5 4 C6.0725 3.87625 7.145 3.7525 8.25 3.625 C11.37863615 3.10356064 13.33480424 2.59911746 16 1 C16 1.66 16 2.32 16 3 C15.01 3.66 14.02 4.32 13 5 C11.45095841 7.35454322 10.16533583 9.5177705 9.25 12.1875 C8 14 8 14 4.6875 15.4375 C1 16 1 16 -1.9375 15.25 C-4.46189637 12.49611305 -4.30215252 11.45998564 -4.3125 7.8125 C-4.23210847 6.20696626 -4.1352403 4.60184626 -4 3 C-3.01 3 -2.02 3 -1 3 C-0.67 2.01 -0.34 1.02 0 0 Z " fill="#994F73" transform="translate(9,16)"/>
<path d="M0 0 C2.35953094 2.35953094 2.49141413 3.77895617 3 7 C5.20438833 7.87754191 5.20438833 7.87754191 8 8 C11.29248108 6.16682624 11.29248108 6.16682624 14 4 C14 7.24244455 13.91269624 8.42201811 12 11 C8.2637378 12.6213968 6.03932185 13.26535877 2.0625 12.25 C-0.46189637 9.49611305 -0.30215252 8.45998564 -0.3125 4.8125 C-0.23210847 3.20696626 -0.1352403 1.60184626 0 0 Z " fill="#2E192A" transform="translate(5,19)"/>
<path d="M0 0 C-1.2081448 5.63800905 -1.2081448 5.63800905 -3 8 C-6.625 8.75 -6.625 8.75 -10 9 C-9.875 6.75 -9.875 6.75 -9 4 C-4.02702703 0 -4.02702703 0 0 0 Z " fill="#BA7BA4" transform="translate(15,5)"/>
<path d="M0 0 C1.8125 0.9375 1.8125 0.9375 2.8125 3.9375 C2.07 4.02 1.3275 4.1025 0.5625 4.1875 C-2.30469068 4.71839547 -2.30469068 4.71839547 -4.125 6.9375 C-6.72610145 9.4597802 -8.64590313 9.61553665 -12.1875 9.9375 C-10.1875 7.9375 -8.1875 5.9375 -6.1875 3.9375 C-5.548125 3.195 -4.90875 2.4525 -4.25 1.6875 C-2.1875 -0.0625 -2.1875 -0.0625 0 0 Z " fill="#ECB4D4" transform="translate(24.1875,7.0625)"/>
<path d="M0 0 C0.33 0.66 0.66 1.32 1 2 C0.67 2.99 0.34 3.98 0 5 C1.98 4.67 3.96 4.34 6 4 C6 7 6 7 4.75 8.6875 C3 10 3 10 -1 10 C-1.9765625 3.9453125 -1.9765625 3.9453125 -2 2 C-1.34 1.34 -0.68 0.68 0 0 Z M1 7 C2 9 2 9 2 9 Z " fill="#331831" transform="translate(5,9)"/>
<path d="M0 0 C0.625 1.875 0.625 1.875 1 4 C-1 6 -1 6 -4.625 6.125 C-5.73875 6.08375 -6.8525 6.0425 -8 6 C-6.68 4.35 -5.36 2.7 -4 1 C-2.68 1.33 -1.36 1.66 0 2 C0 1.34 0 0.68 0 0 Z " fill="#E280BF" transform="translate(27,9)"/>
<path d="M0 0 C0.33 0.66 0.66 1.32 1 2 C1.66 2.33 2.32 2.66 3 3 C0.63707344 5.52588702 -0.66462511 6.88820837 -4 8 C-3.625 6.0625 -3.625 6.0625 -3 4 C-2.34 3.67 -1.68 3.34 -1 3 C-0.67 2.01 -0.34 1.02 0 0 Z " fill="#685267" transform="translate(16,8)"/>
<path d="M0 0 C0.33 0.66 0.66 1.32 1 2 C0.34 2 -0.32 2 -1 2 C-1 2.66 -1 3.32 -1 4 C-0.34 4 0.32 4 1 4 C1 4.66 1 5.32 1 6 C-0.98 6.33 -2.96 6.66 -5 7 C-5 6.01 -5 5.02 -5 4 C-4.34 4 -3.68 4 -3 4 C-2.67 3.01 -2.34 2.02 -2 1 C-1.34 0.67 -0.68 0.34 0 0 Z " fill="#EDB3CE" transform="translate(15,18)"/>
<path d="M0 0 C-0.33 1.32 -0.66 2.64 -1 4 C-3.31 4.33 -5.62 4.66 -8 5 C-3.375 0 -3.375 0 0 0 Z " fill="#F0BDDD" transform="translate(15,5)"/>
<path d="M0 0 C0 0.99 0 1.98 0 3 C-3.28976808 4.09658936 -4.71303767 3.79953138 -8 3 C-8 2.34 -8 1.68 -8 1 C-2.25 0 -2.25 0 0 0 Z " fill="#DD68A6" transform="translate(26,14)"/>
<path d="M0 0 C1.9375 0.3125 1.9375 0.3125 4 1 C4.33 1.99 4.66 2.98 5 4 C2.69 4 0.38 4 -2 4 C-1.34 2.68 -0.68 1.36 0 0 Z " fill="#E6C9D8" transform="translate(22,7)"/>
<path d="M0 0 C0.33 0 0.66 0 1 0 C1 2.64 1 5.28 1 8 C0.67 8 0.34 8 0 8 C0 5.36 0 2.72 0 0 Z " fill="#251525" transform="translate(3,19)"/>
<path d="M0 0 C0.33 0 0.66 0 1 0 C1 1.65 1 3.3 1 5 C0.67 5 0.34 5 0 5 C0 3.35 0 1.7 0 0 Z " fill="#000000" transform="translate(31,8)"/>
<path d="M0 0 C1 4 1 4 1 4 Z " fill="#000000" transform="translate(1,11)"/>
<path d="M0 0 C3 1 3 1 3 1 Z " fill="#000000" transform="translate(12,1)"/>
<path d="" fill="#000000" transform="translate(0,0)"/>
<path d="" fill="#3F3F3F" transform="translate(0,0)"/>
<path d="" fill="#7F7F7F" transform="translate(0,0)"/>
<path d="" fill="#000000" transform="translate(0,0)"/>
<path d="" fill="#000000" transform="translate(0,0)"/>
<path d="" fill="#000000" transform="translate(0,0)"/>
<path d="" fill="#000000" transform="translate(0,0)"/>
<path d="" fill="#550000" transform="translate(0,0)"/>
<path d="" fill="#FF0000" transform="translate(0,0)"/>
<path d="" fill="#000000" transform="translate(0,0)"/>
<path d="" fill="#000000" transform="translate(0,0)"/>
<path d="" fill="#00007F" transform="translate(0,0)"/>
<path d="" fill="#00007F" transform="translate(0,0)"/>
<path d="" fill="#3F003F" transform="translate(0,0)"/>
<path d="" fill="#7F7F7F" transform="translate(0,0)"/>
<path d="" fill="#000000" transform="translate(0,0)"/>
<path d="" fill="#7F007F" transform="translate(0,0)"/>
<path d="" fill="#000000" transform="translate(0,0)"/>
<path d="" fill="#000000" transform="translate(0,0)"/>
</svg>
