<?xml version="1.0" encoding="UTF-8"?>
<svg version="1.1" xmlns="http://www.w3.org/2000/svg" width="32" height="32">
<path d="M0 0 C3.3 0 6.6 0 10 0 C9.34 2.97 8.68 5.94 8 9 C9.32 9.33 10.64 9.66 12 10 C12.3125 12.8125 12.3125 12.8125 12 16 C10.36021682 17.04349839 8.68535024 18.03182008 7 19 C5.07181711 21.30885419 3.30703636 23.69509579 1.55078125 26.13671875 C0.78314453 27.05904297 0.78314453 27.05904297 0 28 C-0.66 28 -1.32 28 -2 28 C-2 24.37 -2 20.74 -2 17 C-3.32 16.34 -4.64 15.68 -6 15 C-5.39644592 11.14974121 -4.23227397 8.13898841 -2.4375 4.6875 C-1.98246094 3.80449219 -1.52742187 2.92148438 -1.05859375 2.01171875 C-0.53458984 1.01591797 -0.53458984 1.01591797 0 0 Z M-1 15 C0 17 0 17 0 17 Z " fill="#8F59B1" transform="translate(13,2)"/>
<path d="M0 0 C3.3 0 6.6 0 10 0 C9.34 2.97 8.68 5.94 8 9 C9.32 9.33 10.64 9.66 12 10 C12 11.98 12 13.96 12 16 C10.02 16.99 8.04 17.98 6 19 C6 17.35 6 15.7 6 14 C7.32 13.67 8.64 13.34 10 13 C10 12.34 10 11.68 10 11 C8.35 11 6.7 11 5 11 C4.67 10.01 4.34 9.02 4 8 C3.34 7.67 2.68 7.34 2 7 C3.75 3.125 3.75 3.125 6 2 C4.35 2 2.7 2 1 2 C0.01 3.98 -0.98 5.96 -2 8 C-2.33 7.34 -2.66 6.68 -3 6 C-2.06553465 3.96855359 -1.06775224 1.96466413 0 0 Z " fill="#66507D" transform="translate(13,2)"/>
<path d="M0 0 C2.31 0 4.62 0 7 0 C6.360625 0.2475 5.72125 0.495 5.0625 0.75 C2.8624253 1.81731571 2.8624253 1.81731571 2.125 3.9375 C1.77261893 6.31328252 1.77261893 6.31328252 4 9 C6.56282742 9.72965366 6.56282742 9.72965366 9 10 C9 10.66 9 11.32 9 12 C1.79029463 13.3864818 1.79029463 13.3864818 -2 11 C-2.66 11 -3.32 11 -4 11 C-3.39301257 6.87248551 -1.96189209 3.6678852 0 0 Z " fill="#B38EC9" transform="translate(14,3)"/>
<path d="M0 0 C0.33 0.66 0.66 1.32 1 2 C2.98 2 4.96 2 7 2 C7 5.3 7 8.6 7 12 C7.66 11.67 8.32 11.34 9 11 C8.1875 12.9375 8.1875 12.9375 7 15 C6.01 15.33 5.02 15.66 4 16 C4 12.37 4 8.74 4 5 C2.68 4.34 1.36 3.68 0 3 C0 2.01 0 1.02 0 0 Z M5 3 C6 5 6 5 6 5 Z " fill="#3A2F51" transform="translate(7,14)"/>
<path d="M0 0 C0.66 0.66 1.32 1.32 2 2 C4.06874034 2.6425235 4.06874034 2.6425235 6 3 C6 4.98 6 6.96 6 9 C4.02 9.99 2.04 10.98 0 12 C0 10.35 0 8.7 0 7 C1.32 6.67 2.64 6.34 4 6 C4 5.34 4 4.68 4 4 C2.35 4 0.7 4 -1 4 C-0.67 2.68 -0.34 1.36 0 0 Z " fill="#433262" transform="translate(19,9)"/>
<path d="M0 0 C1.134375 0.020625 2.26875 0.04125 3.4375 0.0625 C2.509375 0.4028125 2.509375 0.4028125 1.5625 0.75 C-0.80121582 1.91561983 -0.80121582 1.91561983 -1.5625 4.625 C-1.8925 5.429375 -2.2225 6.23375 -2.5625 7.0625 C-4.6875 7.875 -4.6875 7.875 -6.5625 8.0625 C-4.38461538 0.07692308 -4.38461538 0.07692308 0 0 Z " fill="#CDB1DA" transform="translate(17.5625,2.9375)"/>
<path d="M0 0 C0.1875 2.875 0.1875 2.875 0 6 C-0.99 6.66 -1.98 7.32 -3 8 C-3.33 5.69 -3.66 3.38 -4 1 C-2 0 -2 0 0 0 Z " fill="#68368F" transform="translate(19,17)"/>
<path d="M0 0 C0.33 1.32 0.66 2.64 1 4 C2.32 3.67 3.64 3.34 5 3 C5.99 4.485 5.99 4.485 7 6 C4.36 6 1.72 6 -1 6 C-0.67 4.02 -0.34 2.04 0 0 Z " fill="#6F4494" transform="translate(9,10)"/>
<path d="M0 0 C0.99 0 1.98 0 3 0 C3 1.65 3 3.3 3 5 C2.87625 4.360625 2.7525 3.72125 2.625 3.0625 C2.315625 2.0415625 2.315625 2.0415625 2 1 C1.34 0.67 0.68 0.34 0 0 Z " fill="#2A2A3C" transform="translate(8,19)"/>
<path d="M0 0 C0.33 0 0.66 0 1 0 C1 1.98 1 3.96 1 6 C0.67 6 0.34 6 0 6 C0 4.02 0 2.04 0 0 Z " fill="#2A1C3F" transform="translate(9,24)"/>
<path d="M0 0 C1.98 0.99 1.98 0.99 4 2 C2.68 2 1.36 2 0 2 C0 1.34 0 0.68 0 0 Z " fill="#3D3D7A" transform="translate(21,9)"/>
<path d="" fill="#5555D4" transform="translate(0,0)"/>
<path d="" fill="#1C1C46" transform="translate(0,0)"/>
<path d="" fill="#2A2A46" transform="translate(0,0)"/>
<path d="" fill="#715571" transform="translate(0,0)"/>
<path d="M0 0 C2 1 2 1 2 1 Z " fill="#6A006A" transform="translate(11,31)"/>
<path d="" fill="#2A2A2A" transform="translate(0,0)"/>
<path d="" fill="#3F3F3F" transform="translate(0,0)"/>
<path d="" fill="#7F7FBF" transform="translate(0,0)"/>
<path d="" fill="#7F7FBF" transform="translate(0,0)"/>
<path d="" fill="#7F7FBF" transform="translate(0,0)"/>
<path d="" fill="#2A2A2A" transform="translate(0,0)"/>
<path d="" fill="#2A2A2A" transform="translate(0,0)"/>
<path d="" fill="#000000" transform="translate(0,0)"/>
<path d="" fill="#000000" transform="translate(0,0)"/>
<path d="" fill="#0000FF" transform="translate(0,0)"/>
<path d="" fill="#000055" transform="translate(0,0)"/>
<path d="" fill="#00007F" transform="translate(0,0)"/>
<path d="" fill="#550055" transform="translate(0,0)"/>
<path d="" fill="#000055" transform="translate(0,0)"/>
<path d="" fill="#555555" transform="translate(0,0)"/>
<path d="" fill="#000055" transform="translate(0,0)"/>
<path d="" fill="#00007F" transform="translate(0,0)"/>
<path d="" fill="#00007F" transform="translate(0,0)"/>
<path d="" fill="#FFFFFF" transform="translate(0,0)"/>
<path d="" fill="#000000" transform="translate(0,0)"/>
</svg>
