<?xml version="1.0" encoding="UTF-8"?>
<svg version="1.1" xmlns="http://www.w3.org/2000/svg" width="32" height="32">
<path d="M0 0 C1.125 4.75 1.125 4.75 0 7 C-0.99 7.33 -1.98 7.66 -3 8 C-1.50441148 12.62272814 0.68171219 15.52369849 4 19 C5.91666667 19.83333333 5.91666667 19.83333333 8 20 C10.00382009 20.65509503 12.00458132 21.31974363 14 22 C14.33 23.65 14.66 25.3 15 27 C9.52463417 27.90039349 5.15746712 28.51876301 0 26 C-6.08576347 21.05531718 -11.43424311 13.71464074 -12.375 5.875 C-12 3 -12 3 -10.5 1.125 C-6.87739877 -0.50517055 -3.95453342 -0.19772667 0 0 Z M-5 6 C-4 8 -4 8 -4 8 Z " fill="#231D1D" transform="translate(14,2)"/>
<path d="M0 0 C3.02303919 0.21593137 4.36148129 1.27311919 6.8125 3.125 C10.74864019 5.44037658 12.65236144 5.04343325 17 4 C17 4.99 17 5.98 17 7 C11.52463417 7.90039349 7.15746712 8.51876301 2 6 C-0.375 3.875 -0.375 3.875 -2 2 C-1.34 1.34 -0.68 0.68 0 0 Z " fill="#191213" transform="translate(12,22)"/>
<path d="M0 0 C1.65 0 3.3 0 5 0 C4.67 0.66 4.34 1.32 4 2 C3.34964295 5.33307989 3.57900409 7.32640655 5.38671875 10.21875 C8.63445487 14.44573844 12.11650726 18.35187046 16 22 C8.9934908 20.08913385 4.57060755 14.32302272 1 8.3125 C-1.10161355 4.61497366 -1.10161355 4.61497366 -0.625 1.73046875 C-0.41875 1.15941406 -0.2125 0.58835937 0 0 Z " fill="#E1C8CB" transform="translate(5,4)"/>
<path d="M0 0 C0.43054688 0.57492187 0.86109375 1.14984375 1.3046875 1.7421875 C2.38986697 3.18742652 3.47812424 4.63036281 4.5703125 6.0703125 C5.08335938 6.74835937 5.59640625 7.42640625 6.125 8.125 C6.90230469 9.14980469 6.90230469 9.14980469 7.6953125 10.1953125 C9 12 9 12 10 14 C8.1875 14.6875 8.1875 14.6875 6 15 C2.49845235 12.7590095 1.36109956 8.75922735 0 5 C-0.1875 2.0625 -0.1875 2.0625 0 0 Z " fill="#332527" transform="translate(4,8)"/>
<path d="M0 0 C2.97 0.99 5.94 1.98 9 3 C8.01 3.33 7.02 3.66 6 4 C6.33 4.99 6.66 5.98 7 7 C5.35 6.67 3.7 6.34 2 6 C1.34 4.02 0.68 2.04 0 0 Z " fill="#504849" transform="translate(19,21)"/>
<path d="M0 0 C1.2065625 0.0309375 1.2065625 0.0309375 2.4375 0.0625 C1.7775 2.0425 1.1175 4.0225 0.4375 6.0625 C-0.5525 6.0625 -1.5425 6.0625 -2.5625 6.0625 C-2.94468767 4.40635343 -3.27645102 2.73792976 -3.5625 1.0625 C-2.5625 0.0625 -2.5625 0.0625 0 0 Z " fill="#C4ADAE" transform="translate(7.5625,3.9375)"/>
<path d="M0 0 C1.32 0 2.64 0 4 0 C4 0.99 4 1.98 4 3 C1.08517222 3.80967438 -0.46113217 4.21845993 -3.3125 3.0625 C-3.869375 2.711875 -4.42625 2.36125 -5 2 C-3.35 1.67 -1.7 1.34 0 1 C0 0.67 0 0.34 0 0 Z " fill="#251A1B" transform="translate(25,26)"/>
<path d="M0 0 C2.01136276 2.55991624 3.62845496 5.04590299 5 8 C3.68 7.67 2.36 7.34 1 7 C0.67 4.69 0.34 2.38 0 0 Z " fill="#634A4C" transform="translate(4,8)"/>
<path d="M0 0 C0.33 0 0.66 0 1 0 C1 1.98 1 3.96 1 6 C0.67 6 0.34 6 0 6 C0 4.02 0 2.04 0 0 Z " fill="#000000" transform="translate(0,5)"/>
<path d="M0 0 C4 1 4 1 4 1 Z " fill="#000000" transform="translate(23,31)"/>
<path d="M0 0 C3 1 3 1 3 1 Z " fill="#000000" transform="translate(20,30)"/>
<path d="" fill="#000000" transform="translate(0,0)"/>
<path d="M0 0 C3 1 3 1 3 1 Z " fill="#381C1C" transform="translate(9,1)"/>
<path d="M0 0 C2 1 2 1 2 1 Z " fill="#000000" transform="translate(27,30)"/>
<path d="" fill="#000000" transform="translate(0,0)"/>
<path d="" fill="#000000" transform="translate(0,0)"/>
<path d="" fill="#000000" transform="translate(0,0)"/>
<path d="" fill="#000000" transform="translate(0,0)"/>
<path d="" fill="#000000" transform="translate(0,0)"/>
<path d="" fill="#000000" transform="translate(0,0)"/>
<path d="" fill="#000000" transform="translate(0,0)"/>
<path d="M0 0 C2 1 2 1 2 1 Z " fill="#3F3F3F" transform="translate(4,1)"/>
<path d="M0 0 C2 1 2 1 2 1 Z " fill="#000000" transform="translate(6,0)"/>
<path d="" fill="#000000" transform="translate(0,0)"/>
<path d="" fill="#000000" transform="translate(0,0)"/>
<path d="" fill="#000000" transform="translate(0,0)"/>
<path d="" fill="#000000" transform="translate(0,0)"/>
<path d="" fill="#000000" transform="translate(0,0)"/>
<path d="" fill="#000000" transform="translate(0,0)"/>
<path d="" fill="#000000" transform="translate(0,0)"/>
<path d="" fill="#000000" transform="translate(0,0)"/>
<path d="" fill="#000000" transform="translate(0,0)"/>
<path d="" fill="#000000" transform="translate(0,0)"/>
<path d="" fill="#000000" transform="translate(0,0)"/>
<path d="" fill="#000000" transform="translate(0,0)"/>
<path d="" fill="#000000" transform="translate(0,0)"/>
<path d="" fill="#000000" transform="translate(0,0)"/>
<path d="" fill="#000000" transform="translate(0,0)"/>
</svg>
