<?xml version="1.0" encoding="UTF-8"?>
<svg version="1.1" xmlns="http://www.w3.org/2000/svg" width="32" height="32">
<path d="M0 0 C3 1 3 1 5 4 C5.125 7.1875 5.125 7.1875 5 10 C7.05270463 8.15811388 7.05270463 8.15811388 8 6 C10.31 6 12.62 6 15 6 C14.85831863 7.43791516 14.71148957 8.8753237 14.5625 10.3125 C14.48128906 11.11300781 14.40007813 11.91351563 14.31640625 12.73828125 C14 15 14 15 13 18 C13.87914688 20.6569191 13.87914688 20.6569191 15 23 C8.71428571 25.42857143 8.71428571 25.42857143 5 24 C4.67 25.65 4.34 27.3 4 29 C2.68 29 1.36 29 0 29 C-1.74627478 26.38058783 -2.38722388 24.96175123 -3 22 C-3.33 23.32 -3.66 24.64 -4 26 C-6.31 25.34 -8.62 24.68 -11 24 C-10.125 19.25 -10.125 19.25 -9 17 C-9.32083143 14.84146174 -9.32083143 14.84146174 -9.9375 12.5 C-11 8.16556291 -11 8.16556291 -11 6 C-7.625 5.8125 -7.625 5.8125 -4 6 C-3.01 7.485 -3.01 7.485 -2 9 C-1.34 6.03 -0.68 3.06 0 0 Z M-6 15 C-5 17 -5 17 -5 17 Z M9 15 C10 17 10 17 10 17 Z " fill="#181B25" transform="translate(14,0)"/>
<path d="M0 0 C1.32 0.33 2.64 0.66 4 1 C3.67 2.98 3.34 4.96 3 7 C3.721875 6.855625 4.44375 6.71125 5.1875 6.5625 C7.0625 6.1875 8.9375 5.8125 10.8125 5.4375 C11.534375 5.293125 12.25625 5.14875 13 5 C12.67 6.32 12.34 7.64 12 9 C10.35 9.33 8.7 9.66 7 10 C7 11.32 7 12.64 7 14 C9.475 14.495 9.475 14.495 12 15 C12 15.99 12 16.98 12 18 C9.36 17.67 6.72 17.34 4 17 C4 18.98 4 20.96 4 23 C2.68 23 1.36 23 0 23 C0 21.02 0 19.04 0 17 C-2.64 17 -5.28 17 -8 17 C-7.67 16.01 -7.34 15.02 -7 14 C-6.01 14 -5.02 14 -4 14 C-4 13.01 -4 12.02 -4 11 C-4.825 10.505 -5.65 10.01 -6.5 9.5 C-7.325 9.005 -8.15 8.51 -9 8 C-9 7.01 -9 6.02 -9 5 C-5.97580475 5.58803797 -2.98241547 6.22678118 0 7 C0 4.69 0 2.38 0 0 Z " fill="#5C7DB9" transform="translate(14,4)"/>
<path d="M0 0 C3 1 3 1 5 4 C5.125 7.1875 5.125 7.1875 5 10 C7.05270463 8.15811388 7.05270463 8.15811388 8 6 C10.31 6 12.62 6 15 6 C14.85831863 7.43791516 14.71148957 8.8753237 14.5625 10.3125 C14.48128906 11.11300781 14.40007813 11.91351563 14.31640625 12.73828125 C14 15 14 15 13 18 C13.87914688 20.6569191 13.87914688 20.6569191 15 23 C14 24 14 24 11.4375 24.0625 C10.633125 24.041875 9.82875 24.02125 9 24 C8.67 23.01 8.34 22.02 8 21 C9.32 20.67 10.64 20.34 12 20 C9.525 19.01 9.525 19.01 7 18 C7 16.68 7 15.36 7 14 C7.804375 13.731875 8.60875 13.46375 9.4375 13.1875 C10.283125 12.795625 11.12875 12.40375 12 12 C12.33 11.01 12.66 10.02 13 9 C9.45481116 10.39759905 9.45481116 10.39759905 6 12 C5.01 11.67 4.02 11.34 3 11 C3 9.02 3 7.04 3 5 C2.01 4.67 1.02 4.34 0 4 C0 2.68 0 1.36 0 0 Z M9 15 C10 17 10 17 10 17 Z " fill="#242D33" transform="translate(14,0)"/>
<path d="M0 0 C1.98 0.495 1.98 0.495 4 1 C3.67 2.98 3.34 4.96 3 7 C3.721875 6.855625 4.44375 6.71125 5.1875 6.5625 C7.0625 6.1875 8.9375 5.8125 10.8125 5.4375 C11.534375 5.293125 12.25625 5.14875 13 5 C12.67 6.32 12.34 7.64 12 9 C7.48382401 9.07654536 3.40914783 9.10228696 -1 8 C-0.67 5.36 -0.34 2.72 0 0 Z " fill="#98C5E8" transform="translate(14,4)"/>
<path d="M0 0 C2.29141286 -0.05384521 4.58318188 -0.09272087 6.875 -0.125 C8.78925781 -0.15980469 8.78925781 -0.15980469 10.7421875 -0.1953125 C14 0 14 0 16 2 C14.02 2 12.04 2 10 2 C10 3.98 10 5.96 10 8 C8.68 8 7.36 8 6 8 C6 6.02 6 4.04 6 2 C3.03 1.505 3.03 1.505 0 1 C0 0.67 0 0.34 0 0 Z " fill="#3059B2" transform="translate(8,19)"/>
<path d="M0 0 C1.32 0 2.64 0 4 0 C7.22265625 5.17578125 7.22265625 5.17578125 8 7 C7.67 7.99 7.34 8.98 7 10 C5.35 10 3.7 10 2 10 C1.67 9.01 1.34 8.02 1 7 C2.32 6.67 3.64 6.34 5 6 C2.525 5.01 2.525 5.01 0 4 C0 2.68 0 1.36 0 0 Z M2 1 C3 3 3 3 3 3 Z " fill="#17303B" transform="translate(21,14)"/>
<path d="M0 0 C3.63 0 7.26 0 11 0 C9.02 0.99 9.02 0.99 7 2 C5.26574227 4.03317007 5.26574227 4.03317007 4 6 C2.68 5.67 1.36 5.34 0 5 C0 3.35 0 1.7 0 0 Z " fill="#4865A3" transform="translate(14,13)"/>
<path d="M0 0 C0.33 0.99 0.66 1.98 1 3 C2.65 3.33 4.3 3.66 6 4 C6 4.99 6 5.98 6 7 C5.43796875 6.67257813 4.8759375 6.34515625 4.296875 6.0078125 C1.73140036 4.88214506 0.03157723 4.7931889 -2.75 4.875 C-3.94882812 4.90207031 -3.94882812 4.90207031 -5.171875 4.9296875 C-6.07679687 4.96449219 -6.07679687 4.96449219 -7 5 C-7 4.01 -7 3.02 -7 2 C-5.35 2.33 -3.7 2.66 -2 3 C-1.34 2.01 -0.68 1.02 0 0 Z " fill="#96B8E9" transform="translate(20,15)"/>
<path d="M0 0 C-0.66 1.32 -1.32 2.64 -2 4 C-3.98 4 -5.96 4 -8 4 C-8 3.01 -8 2.02 -8 1 C-5.29120665 -0.35439668 -2.99066732 -0.06501451 0 0 Z " fill="#13275F" transform="translate(11,20)"/>
<path d="M0 0 C2.375 0.3125 2.375 0.3125 5 1 C5.66 1.99 6.32 2.98 7 4 C5.02 4 3.04 4 1 4 C0.67 2.68 0.34 1.36 0 0 Z " fill="#8FB2DC" transform="translate(5,9)"/>
<path d="M0 0 C1.32 0 2.64 0 4 0 C3.67 1.32 3.34 2.64 3 4 C1.35 4 -0.3 4 -2 4 C-1.34 2.68 -0.68 1.36 0 0 Z " fill="#85A9DA" transform="translate(23,9)"/>
<path d="M0 0 C2.31 0 4.62 0 7 0 C6.67 0.99 6.34 1.98 6 3 C4.35 3 2.7 3 1 3 C0.67 2.01 0.34 1.02 0 0 Z " fill="#182952" transform="translate(22,21)"/>
<path d="M0 0 C1.65 0 3.3 0 5 0 C5 0.33 5 0.66 5 1 C3.35 1 1.7 1 0 1 C0 0.67 0 0.34 0 0 Z " fill="#000000" transform="translate(23,25)"/>
<path d="M0 0 C1.65 0 3.3 0 5 0 C5 0.33 5 0.66 5 1 C3.35 1 1.7 1 0 1 C0 0.67 0 0.34 0 0 Z " fill="#000000" transform="translate(4,25)"/>
<path d="" fill="#000000" transform="translate(0,0)"/>
<path d="" fill="#717171" transform="translate(0,0)"/>
<path d="M0 0 C2 1 2 1 2 1 Z " fill="#000000" transform="translate(15,31)"/>
<path d="" fill="#00002A" transform="translate(0,0)"/>
<path d="" fill="#00003F" transform="translate(0,0)"/>
<path d="" fill="#000000" transform="translate(0,0)"/>
<path d="" fill="#000000" transform="translate(0,0)"/>
<path d="" fill="#002A2A" transform="translate(0,0)"/>
<path d="" fill="#00007F" transform="translate(0,0)"/>
<path d="" fill="#00002A" transform="translate(0,0)"/>
<path d="" fill="#00003F" transform="translate(0,0)"/>
<path d="" fill="#000000" transform="translate(0,0)"/>
<path d="" fill="#7F7F7F" transform="translate(0,0)"/>
<path d="" fill="#7F7F7F" transform="translate(0,0)"/>
<path d="" fill="#000000" transform="translate(0,0)"/>
<path d="" fill="#000000" transform="translate(0,0)"/>
<path d="" fill="#000000" transform="translate(0,0)"/>
<path d="" fill="#000000" transform="translate(0,0)"/>
<path d="" fill="#000000" transform="translate(0,0)"/>
<path d="" fill="#000000" transform="translate(0,0)"/>
<path d="" fill="#000000" transform="translate(0,0)"/>
<path d="" fill="#000000" transform="translate(0,0)"/>
<path d="" fill="#000000" transform="translate(0,0)"/>
<path d="" fill="#000000" transform="translate(0,0)"/>
<path d="" fill="#000000" transform="translate(0,0)"/>
<path d="" fill="#000000" transform="translate(0,0)"/>
<path d="" fill="#555555" transform="translate(0,0)"/>
<path d="" fill="#00007F" transform="translate(0,0)"/>
<path d="" fill="#000000" transform="translate(0,0)"/>
<path d="" fill="#000000" transform="translate(0,0)"/>
</svg>
