<?xml version="1.0" encoding="UTF-8"?>
<svg version="1.1" xmlns="http://www.w3.org/2000/svg" width="32" height="32">
<path d="M0 0 C1.22589844 -0.00515625 2.45179687 -0.0103125 3.71484375 -0.015625 C6.86828491 0.2345897 8.37380317 0.7569539 11.0625 2.25 C13.75243053 1.94621948 13.75243053 1.94621948 16.0625 1.25 C16.1875 7 16.1875 7 15.0625 9.25 C15.0625 10.260625 15.0625 11.27125 15.0625 12.3125 C15.0625 13.281875 15.0625 14.25125 15.0625 15.25 C14.7325 15.58 14.4025 15.91 14.0625 16.25 C14.3925 16.765625 14.7225 17.28125 15.0625 17.8125 C16.44601565 21.18481939 16.52153072 23.64333002 16.0625 27.25 C13.5625 29.1875 13.5625 29.1875 11.0625 30.25 C10.711875 29.76144531 10.36125 29.27289062 10 28.76953125 C7.10060713 26.49561225 4.68999269 26.8883777 1.0625 26.9375 C-0.175 26.94136719 -1.4125 26.94523437 -2.6875 26.94921875 C-6.0832482 27.0036312 -6.0832482 27.0036312 -8.9375 29.25 C-11 29.9375 -11 29.9375 -12.9375 30.25 C-14.9375 29.25 -14.9375 29.25 -15.9375 27.25 C-16.17444459 22.98499742 -16.24224002 19.91046944 -13.9375 16.25 C-13.6075 15.59 -13.2775 14.93 -12.9375 14.25 C-13.69331528 12.54120025 -14.45182033 10.83343956 -15.234375 9.13671875 C-16.22670526 6.4739659 -16.14275426 4.05514151 -15.9375 1.25 C-15.009375 1.45625 -14.08125 1.6625 -13.125 1.875 C-8.64454222 2.40211268 -4.97438237 -0.02087883 0 0 Z M-12.9375 8.25 C-11.9375 11.25 -11.9375 11.25 -11.9375 11.25 Z M12.0625 8.25 C13.0625 10.25 13.0625 10.25 13.0625 10.25 Z M-5.9375 13.25 C-6.2675 14.24 -6.5975 15.23 -6.9375 16.25 C-5.9475 15.92 -4.9575 15.59 -3.9375 15.25 C-3.9375 14.59 -3.9375 13.93 -3.9375 13.25 C-4.5975 13.25 -5.2575 13.25 -5.9375 13.25 Z M4.0625 13.25 C4.3925 14.24 4.7225 15.23 5.0625 16.25 C5.7225 16.25 6.3825 16.25 7.0625 16.25 C6.7325 15.26 6.4025 14.27 6.0625 13.25 C5.4025 13.25 4.7425 13.25 4.0625 13.25 Z " fill="#263D28" transform="translate(15.9375,1.75)"/>
<path d="M0 0 C1.22589844 -0.00515625 2.45179687 -0.0103125 3.71484375 -0.015625 C6.86828491 0.2345897 8.37380317 0.7569539 11.0625 2.25 C13.75243053 1.94621948 13.75243053 1.94621948 16.0625 1.25 C16.0625 3.23 16.0625 5.21 16.0625 7.25 C14.4125 7.25 12.7625 7.25 11.0625 7.25 C11.0625 10.88 11.0625 14.51 11.0625 18.25 C8.7525 18.58 6.4425 18.91 4.0625 19.25 C3.4025 18.26 2.7425 17.27 2.0625 16.25 C4.0425 16.58 6.0225 16.91 8.0625 17.25 C8.0625 15.27 8.0625 13.29 8.0625 11.25 C7.48242188 11.33378906 6.90234375 11.41757813 6.3046875 11.50390625 C1.63934697 12.11209421 -2.29192117 12.32205665 -6.9375 11.25 C-7.18780977 13.66619823 -7.18780977 13.66619823 -6.9375 16.25 C-5.9475 16.91 -4.9575 17.57 -3.9375 18.25 C-7.07099732 19.29449911 -7.92718256 19.18423645 -10.9375 18.25 C-10.9375 16.25 -10.9375 16.25 -9.9375 15.25 C-10.2675 15.25 -10.5975 15.25 -10.9375 15.25 C-10.9375 12.61 -10.9375 9.97 -10.9375 7.25 C-12.5875 7.25 -14.2375 7.25 -15.9375 7.25 C-15.9375 5.27 -15.9375 3.29 -15.9375 1.25 C-15.009375 1.45625 -14.08125 1.6625 -13.125 1.875 C-8.64454222 2.40211268 -4.97438237 -0.02087883 0 0 Z " fill="#3B4B22" transform="translate(15.9375,1.75)"/>
<path d="M0 0 C1.32 0 2.64 0 4 0 C5.85776765 3.13498292 6.20140476 5.37471432 6 9 C5.01 9.495 5.01 9.495 4 10 C4.50256112 12.01432266 4.50256112 12.01432266 6 14 C10.94367261 15.91463538 10.94367261 15.91463538 16 15 C16 16.32 16 17.64 16 19 C16.66 19 17.32 19 18 19 C18.33 18.01 18.66 17.02 19 16 C19.99 16.33 20.98 16.66 22 17 C21.67 17.99 21.34 18.98 21 20 C19.75283203 19.96519531 19.75283203 19.96519531 18.48046875 19.9296875 C16.85044922 19.90261719 16.85044922 19.90261719 15.1875 19.875 C14.10855469 19.85179688 13.02960937 19.82859375 11.91796875 19.8046875 C8.80597132 19.76976283 8.80597132 19.76976283 6 22 C3.9375 22.6875 3.9375 22.6875 2 23 C0 22 0 22 -1 20 C-1.23694459 15.73499742 -1.30474002 12.66046944 1 9 C2.34780944 6.87891213 2.34780944 6.87891213 1.0625 3.9375 C0.711875 2.968125 0.36125 1.99875 0 1 C0 0.67 0 0.34 0 0 Z M2 1 C3 4 3 4 3 4 Z " fill="#141718" transform="translate(1,9)"/>
<path d="M0 0 C3.5625 1.75 3.5625 1.75 6 4 C6 5.32 6 6.64 6 8 C3.04196565 8.19421438 0.08379837 8.38066186 -2.875 8.5625 C-3.71675781 8.61857422 -4.55851563 8.67464844 -5.42578125 8.73242188 C-6.23144531 8.78076172 -7.03710938 8.82910156 -7.8671875 8.87890625 C-8.98262939 8.94960327 -8.98262939 8.94960327 -10.12060547 9.02172852 C-12 9 -12 9 -14 8 C-13.69209738 5.15190074 -13.34521809 3.41713852 -11.5 1.1875 C-7.6725012 -0.63056193 -4.15710205 -0.65336146 0 0 Z " fill="#6CB229" transform="translate(20,4)"/>
<path d="M0 0 C1.32 0.33 2.64 0.66 4 1 C4.04241723 3.33294775 4.04092937 5.66702567 4 8 C3.67 8.33 3.34 8.66 3 9 C3.33 9.515625 3.66 10.03125 4 10.5625 C5.38351565 13.93481939 5.45903072 16.39333002 5 20 C2.5 21.9375 2.5 21.9375 0 23 C-2.59336176 19.10995735 -1.78784926 17.49074078 -1 13 C-1 11.68 -1 10.36 -1 9 C-0.85302021 7.41471795 -0.68602074 5.8311763 -0.5 4.25 C-0.4071875 3.45078125 -0.314375 2.6515625 -0.21875 1.828125 C-0.1465625 1.22484375 -0.074375 0.6215625 0 0 Z M1 1 C2 3 2 3 2 3 Z " fill="#0E0F13" transform="translate(27,9)"/>
<path d="M0 0 C1.32 0 2.64 0 4 0 C4 1.98 4 3.96 4 6 C2.35 6 0.7 6 -1 6 C-1 9.63 -1 13.26 -1 17 C-3.31 17.33 -5.62 17.66 -8 18 C-8.66 17.01 -9.32 16.02 -10 15 C-7.03 15.495 -7.03 15.495 -4 16 C-4 14.02 -4 12.04 -4 10 C-4.58007812 10.08378906 -5.16015625 10.16757813 -5.7578125 10.25390625 C-10.42315303 10.86209421 -14.35442117 11.07205665 -19 10 C-19 9.67 -19 9.34 -19 9 C-13.39 9 -7.78 9 -2 9 C-2 6.69 -2 4.38 -2 2 C-1.34 1.34 -0.68 0.68 0 0 Z " fill="#527F28" transform="translate(28,3)"/>
<path d="M0 0 C2.46928572 -0.06859127 4.61113993 -0.1093669 7 0.5625 C9.56009512 1.12252081 11.48326486 0.62918378 14 0 C12.66666667 3.33333333 11.33333333 6.66666667 10 10 C9.67 8.68 9.34 7.36 9 6 C8.34 6 7.68 6 7 6 C6.67 6.99 6.34 7.98 6 9 C5.01 9 4.02 9 3 9 C3.33 7.02 3.66 5.04 4 3 C2.68 3 1.36 3 0 3 C0 2.01 0 1.02 0 0 Z " fill="#203C24" transform="translate(14,19)"/>
<path d="M0 0 C1.4370809 -0.05422947 2.87475462 -0.09289723 4.3125 -0.125 C5.11300781 -0.14820313 5.91351563 -0.17140625 6.73828125 -0.1953125 C9 0 9 0 12 2 C12 2.66 12 3.32 12 4 C7.38 4 2.76 4 -2 4 C-1.34 2.68 -0.68 1.36 0 0 Z " fill="#A0EE41" transform="translate(11,4)"/>
<path d="M0 0 C0.33 0.66 0.66 1.32 1 2 C5.62 2 10.24 2 15 2 C15.33 1.34 15.66 0.68 16 0 C16.33 1.32 16.66 2.64 17 4 C11.06 4 5.12 4 -1 4 C-0.67 2.68 -0.34 1.36 0 0 Z " fill="#7FCF2A" transform="translate(8,6)"/>
<path d="M0 0 C3.3 0 6.6 0 10 0 C10 1.98 10 3.96 10 6 C6.53058454 5.54177532 3.32604951 5.10868317 0 4 C0 2.68 0 1.36 0 0 Z M6 2 C6.33 2.99 6.66 3.98 7 5 C7.66 5 8.32 5 9 5 C8.67 4.01 8.34 3.02 8 2 C7.34 2 6.68 2 6 2 Z " fill="#2F4724" transform="translate(14,13)"/>
<path d="M0 0 C1.98 0 3.96 0 6 0 C5.8125 2.375 5.8125 2.375 5 5 C2.4375 6.3125 2.4375 6.3125 0 7 C0 4.69 0 2.38 0 0 Z " fill="#2A3831" transform="translate(26,25)"/>
<path d="M0 0 C0.33 0.66 0.66 1.32 1 2 C1.99 2.33 2.98 2.66 4 3 C3.9071875 4.175625 3.9071875 4.175625 3.8125 5.375 C3.874375 6.24125 3.93625 7.1075 4 8 C4.99 8.66 5.98 9.32 7 10 C3.86650268 11.04449911 3.01031744 10.93423645 0 10 C0 8 0 8 1 7 C0.67 7 0.34 7 0 7 C0 4.69 0 2.38 0 0 Z " fill="#527342" transform="translate(5,10)"/>
<path d="M0 0 C0.66 0 1.32 0 2 0 C2 2.31 2 4.62 2 7 C-0.31 7.33 -2.62 7.66 -5 8 C-5.66 7.01 -6.32 6.02 -7 5 C-4.03 5.495 -4.03 5.495 -1 6 C-0.67 4.02 -0.34 2.04 0 0 Z " fill="#546D4F" transform="translate(25,13)"/>
<path d="M0 0 C1.65 0 3.3 0 5 0 C5 1.32 5 2.64 5 4 C3.35 3.67 1.7 3.34 0 3 C0 2.01 0 1.02 0 0 Z " fill="#3E5442" transform="translate(1,25)"/>
<path d="M0 0 C0 0.99 0 1.98 0 3 C-1 4 -1 4 -4.5625 4.0625 C-5.696875 4.041875 -6.83125 4.02125 -8 4 C-5.37801226 1.84622436 -3.35595828 0.59927826 0 0 Z " fill="#2A4831" transform="translate(27,19)"/>
<path d="M0 0 C0.33 0.99 0.66 1.98 1 3 C2.32 3 3.64 3 5 3 C5 3.66 5 4.32 5 5 C2.36 4.67 -0.28 4.34 -3 4 C-2.01 2.68 -1.02 1.36 0 0 Z " fill="#415C48" transform="translate(13,19)"/>
<path d="M0 0 C3.96 0 7.92 0 12 0 C12 0.33 12 0.66 12 1 C8.04 1 4.08 1 0 1 C0 0.67 0 0.34 0 0 Z " fill="#000000" transform="translate(10,30)"/>
<path d="M0 0 C1.98 0 3.96 0 6 0 C6 0.33 6 0.66 6 1 C4.02 1 2.04 1 0 1 C0 0.67 0 0.34 0 0 Z " fill="#000000" transform="translate(13,0)"/>
<path d="M0 0 C1 4 1 4 1 4 Z " fill="#000000" transform="translate(1,13)"/>
<path d="M0 0 C0.66 0 1.32 0 2 0 C1.67 0.66 1.34 1.32 1 2 C0.67 1.34 0.34 0.68 0 0 Z " fill="#2A2A00" transform="translate(4,2)"/>
<path d="M0 0 C2 1 2 1 2 1 Z " fill="#3F3F3F" transform="translate(30,1)"/>
<path d="M0 0 C2 1 2 1 2 1 Z " fill="#3F3F6A" transform="translate(19,1)"/>
<path d="M0 0 C2 1 2 1 2 1 Z " fill="#3F3F3F" transform="translate(11,1)"/>
<path d="" fill="#000000" transform="translate(0,0)"/>
<path d="" fill="#000000" transform="translate(0,0)"/>
<path d="" fill="#000000" transform="translate(0,0)"/>
<path d="" fill="#000000" transform="translate(0,0)"/>
<path d="" fill="#000000" transform="translate(0,0)"/>
<path d="" fill="#000000" transform="translate(0,0)"/>
<path d="" fill="#242424" transform="translate(0,0)"/>
<path d="" fill="#272727" transform="translate(0,0)"/>
<path d="" fill="#00FF00" transform="translate(0,0)"/>
<path d="" fill="#000000" transform="translate(0,0)"/>
<path d="" fill="#555500" transform="translate(0,0)"/>
<path d="" fill="#000000" transform="translate(0,0)"/>
<path d="" fill="#007F00" transform="translate(0,0)"/>
<path d="" fill="#007F00" transform="translate(0,0)"/>
<path d="" fill="#007F00" transform="translate(0,0)"/>
<path d="" fill="#000000" transform="translate(0,0)"/>
</svg>
