<?xml version="1.0" encoding="UTF-8"?>
<svg version="1.1" xmlns="http://www.w3.org/2000/svg" width="32" height="32">
<path d="M0 0 C2.22377063 -0.12107644 4.00213125 -0.08315499 6.15234375 0.5078125 C7.18247652 2.15602494 8.18349003 3.82284952 9.15234375 5.5078125 C12.77833797 5.92506928 12.77833797 5.92506928 16.15234375 5.5078125 C16.48234375 8.1478125 16.81234375 10.7878125 17.15234375 13.5078125 C15.83234375 13.5078125 14.51234375 13.5078125 13.15234375 13.5078125 C13.15234375 14.8278125 13.15234375 16.1478125 13.15234375 17.5078125 C11.97671875 17.6315625 11.97671875 17.6315625 10.77734375 17.7578125 C8.00485271 18.23587589 8.00485271 18.23587589 6.83984375 20.5703125 C6.61296875 21.2096875 6.38609375 21.8490625 6.15234375 22.5078125 C0.79146492 22.85934554 0.79146492 22.85934554 -1.84765625 22.5078125 C-3.59765625 20.5703125 -3.59765625 20.5703125 -4.84765625 18.5078125 C-6.94181429 17.71157428 -6.94181429 17.71157428 -8.84765625 17.5078125 C-8.84765625 16.1878125 -8.84765625 14.8678125 -8.84765625 13.5078125 C-10.16765625 13.5078125 -11.48765625 13.5078125 -12.84765625 13.5078125 C-12.51765625 10.8678125 -12.18765625 8.2278125 -11.84765625 5.5078125 C-10.75453125 5.6109375 -9.66140625 5.7140625 -8.53515625 5.8203125 C-7.31828125 5.7171875 -6.10140625 5.6140625 -4.84765625 5.5078125 C-4.37328125 4.6828125 -3.89890625 3.8578125 -3.41015625 3.0078125 C-1.84765625 0.5078125 -1.84765625 0.5078125 0 0 Z M-0.84765625 8.5078125 C-1.17765625 9.8278125 -1.50765625 11.1478125 -1.84765625 12.5078125 C-1.18765625 11.1878125 -0.52765625 9.8678125 0.15234375 8.5078125 C-0.17765625 8.5078125 -0.50765625 8.5078125 -0.84765625 8.5078125 Z M4.15234375 8.5078125 C4.81234375 9.8278125 5.47234375 11.1478125 6.15234375 12.5078125 C5.82234375 11.1878125 5.49234375 9.8678125 5.15234375 8.5078125 C4.82234375 8.5078125 4.49234375 8.5078125 4.15234375 8.5078125 Z M-0.84765625 12.5078125 C-0.84765625 13.1678125 -0.84765625 13.8278125 -0.84765625 14.5078125 C-0.18765625 14.1778125 0.47234375 13.8478125 1.15234375 13.5078125 C0.49234375 13.1778125 -0.16765625 12.8478125 -0.84765625 12.5078125 Z M4.15234375 12.5078125 C3.82234375 13.1678125 3.49234375 13.8278125 3.15234375 14.5078125 C3.81234375 14.5078125 4.47234375 14.5078125 5.15234375 14.5078125 C4.82234375 13.8478125 4.49234375 13.1878125 4.15234375 12.5078125 Z " fill="#4E0F10" transform="translate(13.84765625,4.4921875)"/>
<path d="M0 0 C2.21974181 -0.12961996 3.99126678 -0.07797868 6.140625 0.5 C7.890625 2.875 7.890625 2.875 9.140625 5.5 C11.20763155 6.82793606 11.20763155 6.82793606 13.140625 7.5 C12.150625 7.83 11.160625 8.16 10.140625 8.5 C10.140625 9.16 10.140625 9.82 10.140625 10.5 C11.790625 10.5 13.440625 10.5 15.140625 10.5 C15.470625 11.16 15.800625 11.82 16.140625 12.5 C14.160625 12.5 12.180625 12.5 10.140625 12.5 C10.470625 13.49 10.800625 14.48 11.140625 15.5 C8.49323584 16.9606285 7.24614166 17.5 4.140625 17.5 C4.470625 14.86 4.800625 12.22 5.140625 9.5 C3.490625 9.17 1.840625 8.84 0.140625 8.5 C-0.56132493 10.30252869 -0.56132493 10.30252869 -0.859375 12.5 C-0.20901686 13.84136367 0.4569205 15.17532254 1.140625 16.5 C0.810625 17.49 0.480625 18.48 0.140625 19.5 C-0.15070312 19.00628906 -0.44203125 18.51257813 -0.7421875 18.00390625 C-3.49648214 13.60060881 -3.49648214 13.60060881 -8.171875 11.5625 C-9.5021875 11.5315625 -9.5021875 11.5315625 -10.859375 11.5 C-10.859375 11.17 -10.859375 10.84 -10.859375 10.5 C-9.209375 10.5 -7.559375 10.5 -5.859375 10.5 C-5.859375 9.84 -5.859375 9.18 -5.859375 8.5 C-6.849375 8.17 -7.839375 7.84 -8.859375 7.5 C-8.26125 7.273125 -7.663125 7.04625 -7.046875 6.8125 C-4.62665522 5.63456273 -4.62665522 5.63456273 -3.609375 2.875 C-1.859375 0.5 -1.859375 0.5 0 0 Z " fill="#3E1617" transform="translate(13.859375,4.5)"/>
<path d="M0 0 C1.98 0 3.96 0 6 0 C5.34 0.66 4.68 1.32 4 2 C4.66 2.33 5.32 2.66 6 3 C6.68620031 4.32338632 7.34786461 5.65949948 8 7 C9.31542376 9.01182457 10.6459068 11.01399663 12 13 C12.33 12.34 12.66 11.68 13 11 C13.66 11 14.32 11 15 11 C15 11.99 15 12.98 15 14 C15.66 14.33 16.32 14.66 17 15 C14.69 15.66 12.38 16.32 10 17 C9.5875 16.360625 9.175 15.72125 8.75 15.0625 C6.82189513 12.79009069 5.88575819 12.39803561 3 12 C3 10.68 3 9.36 3 8 C1.68 8 0.36 8 -1 8 C-0.67 5.36 -0.34 2.72 0 0 Z " fill="#140404" transform="translate(2,10)"/>
<path d="M0 0 C1.98 0 3.96 0 6 0 C5.67 0.66 5.34 1.32 5 2 C4.34 2 3.68 2 3 2 C3 2.66 3 3.32 3 4 C4.65 4 6.3 4 8 4 C8.33 4.66 8.66 5.32 9 6 C7.02 6 5.04 6 3 6 C3.33 6.99 3.66 7.98 4 9 C1.35261084 10.4606285 0.10551666 11 -3 11 C-2.690625 10.484375 -2.38125 9.96875 -2.0625 9.4375 C-0.70940713 6.33334577 -0.38640576 3.34884993 0 0 Z " fill="#BC2E32" transform="translate(21,11)"/>
<path d="M0 0 C1.32 0 2.64 0 4 0 C4 0.66 4 1.32 4 2 C3.01 2 2.02 2 1 2 C1.32504259 6.82194643 1.32504259 6.82194643 3.5625 10.9375 C4.036875 11.288125 4.51125 11.63875 5 12 C4.67 12.99 4.34 13.98 4 15 C3.70867188 14.50628906 3.41734375 14.01257812 3.1171875 13.50390625 C0.36289286 9.10060881 0.36289286 9.10060881 -4.3125 7.0625 C-5.199375 7.041875 -6.08625 7.02125 -7 7 C-7 6.67 -7 6.34 -7 6 C-5.35 6 -3.7 6 -2 6 C-2 5.34 -2 4.68 -2 4 C-2.99 3.67 -3.98 3.34 -5 3 C-4.360625 2.690625 -3.72125 2.38125 -3.0625 2.0625 C-1.06389179 1.1654837 -1.06389179 1.1654837 0 0 Z " fill="#C23338" transform="translate(10,9)"/>
<path d="M0 0 C1.98 0 3.96 0 6 0 C5.34 0.66 4.68 1.32 4 2 C4.66 2.33 5.32 2.66 6 3 C7.30635274 5.30532837 8.15857074 7.47571223 9 10 C7.35 10.33 5.7 10.66 4 11 C4 10.34 4 9.68 4 9 C4.66 9 5.32 9 6 9 C6 8.34 6 7.68 6 7 C4.02 7 2.04 7 0 7 C-0.93423645 3.98968256 -1.04449911 3.13349732 0 0 Z " fill="#471B1C" transform="translate(2,10)"/>
<path d="M0 0 C1.98 0 3.96 0 6 0 C6.33 2.64 6.66 5.28 7 8 C5.68 8 4.36 8 3 8 C3 9.32 3 10.64 3 12 C2.01 11.67 1.02 11.34 0 11 C0.66 11 1.32 11 2 11 C1.34 9.68 0.68 8.36 0 7 C1.65 6.67 3.3 6.34 5 6 C3.35 5.67 1.7 5.34 0 5 C0 4.34 0 3.68 0 3 C0.66 2.67 1.32 2.34 2 2 C1.34 1.34 0.68 0.68 0 0 Z " fill="#1E0505" transform="translate(24,10)"/>
<path d="M0 0 C3 1 3 1 4.125 2.9375 C4.41375 3.618125 4.7025 4.29875 5 5 C5.33 5.66 5.66 6.32 6 7 C3.03 6.67 0.06 6.34 -3 6 C-3 4.68 -3 3.36 -3 2 C-2.01 1.34 -1.02 0.68 0 0 Z " fill="#7D1D20" transform="translate(18,5)"/>
<path d="M0 0 C0.33 0.66 0.66 1.32 1 2 C1.99 2 2.98 2 4 2 C4.6875 4.3125 4.6875 4.3125 5 7 C3.5625 8.8125 3.5625 8.8125 2 10 C2.04125 9.21625 2.0825 8.4325 2.125 7.625 C2.28728734 4.83883881 2.28728734 4.83883881 0 3 C0 2.01 0 1.02 0 0 Z " fill="#340303" transform="translate(17,9)"/>
<path d="M0 0 C0.99 0.33 1.98 0.66 3 1 C2.01 1.33 1.02 1.66 0 2 C0 1.34 0 0.68 0 0 Z " fill="#740000" transform="translate(28,19)"/>
<path d="M0 0 C0.99 0 1.98 0 3 0 C2.67 0.66 2.34 1.32 2 2 C1.34 1.34 0.68 0.68 0 0 Z " fill="#740000" transform="translate(1,19)"/>
<path d="M0 0 C4 1 4 1 4 1 Z " fill="#250000" transform="translate(24,8)"/>
<path d="M0 0 C4 1 4 1 4 1 Z " fill="#250000" transform="translate(4,8)"/>
<path d="M0 0 C4 1 4 1 4 1 Z " fill="#7F2A2A" transform="translate(14,4)"/>
<path d="M0 0 C3 1 3 1 3 1 Z " fill="#000000" transform="translate(24,23)"/>
<path d="M0 0 C3 1 3 1 3 1 Z " fill="#000000" transform="translate(5,23)"/>
<path d="" fill="#000000" transform="translate(0,0)"/>
<path d="" fill="#000000" transform="translate(0,0)"/>
<path d="" fill="#000000" transform="translate(0,0)"/>
<path d="" fill="#000000" transform="translate(0,0)"/>
<path d="" fill="#000000" transform="translate(0,0)"/>
<path d="" fill="#000000" transform="translate(0,0)"/>
<path d="" fill="#7F003F" transform="translate(0,0)"/>
<path d="" fill="#7F3F3F" transform="translate(0,0)"/>
<path d="" fill="#7F0000" transform="translate(0,0)"/>
<path d="" fill="#550000" transform="translate(0,0)"/>
<path d="" fill="#7F0000" transform="translate(0,0)"/>
<path d="" fill="#7F007F" transform="translate(0,0)"/>
</svg>
