<?xml version="1.0" encoding="UTF-8"?>
<svg version="1.1" xmlns="http://www.w3.org/2000/svg" width="32" height="32">
<path d="M0 0 C1.32 0.33 2.64 0.66 4 1 C4 1.66 4 2.32 4 3 C5.77068176 5.18739868 5.77068176 5.18739868 8 7 C8.99 7 9.98 7 11 7 C11.99 4.69 12.98 2.38 14 0 C16.25 0 16.25 0 19 1 C22.23411464 5.32937391 23.54096782 9.59032178 23 15 C20.69 15.33 18.38 15.66 16 16 C15.21717352 17.79199472 15.21717352 17.79199472 15 20 C15.495 20.639375 15.99 21.27875 16.5 21.9375 C16.995 22.618125 17.49 23.29875 18 24 C17.67 25.65 17.34 27.3 17 29 C11.72 29 6.44 29 1 29 C-0.08642103 25.7407369 0.07832653 25.1336898 1 22 C1.70639944 19.02625618 1.70639944 19.02625618 2 16 C-0.31 15.67 -2.62 15.34 -5 15 C-6.19568017 11.41295948 -5.43725845 10.11669923 -3.90234375 6.78515625 C-2.71981989 4.44570429 -1.40693323 2.21089507 0 0 Z M13 15 C14 19 14 19 14 19 Z M4 16 C5 18 5 18 5 18 Z M3 18 C4 20 4 20 4 20 Z " fill="#302E15" transform="translate(7,2)"/>
<path d="M0 0 C2.8125 1.625 2.8125 1.625 5 4 C5.8125 7.25 5.8125 7.25 6 10 C2.39006828 11.13480527 -0.9842327 11.10015767 -4.75 11.0625 C-5.92046875 11.05347656 -7.0909375 11.04445313 -8.296875 11.03515625 C-9.18890625 11.02355469 -10.0809375 11.01195312 -11 11 C-12.06505018 7.80484947 -12.27693153 7.00991004 -11 4 C-7.47708527 0.37643056 -5.03993139 -0.83998857 0 0 Z " fill="#C79D0B" transform="translate(19,20)"/>
<path d="M0 0 C1.32 0.33 2.64 0.66 4 1 C4 1.66 4 2.32 4 3 C4.350625 3.78375 4.70125 4.5675 5.0625 5.375 C6.07987322 8.22364502 6.04921517 9.23388728 5 12 C4.67 12.66 4.34 13.32 4 14 C1.36 14 -1.28 14 -4 14 C-3.66009167 8.62007164 -3.31442207 4.46726453 0 0 Z " fill="#ACA407" transform="translate(7,2)"/>
<path d="M0 0 C3.35810395 1.38956025 5.18586552 2.82526467 7 6 C7.1875 8.75 7.1875 8.75 7 11 C5.72125 11.061875 4.4425 11.12375 3.125 11.1875 C2.40570312 11.22230469 1.68640625 11.25710937 0.9453125 11.29296875 C0.30335937 11.19628906 -0.33859375 11.09960938 -1 11 C-3 8 -3 8 -2.75 5.5 C-2 3 -2 3 0 0 Z " fill="#E3D902" transform="translate(22,5)"/>
<path d="M0 0 C2.5625 2.1875 2.5625 2.1875 5 5 C4.67 6.65 4.34 8.3 4 10 C-1.28 10 -6.56 10 -12 10 C-13.0448029 6.86559131 -13.15317663 5.97903963 -12 3 C-11.01 2.34 -10.02 1.68 -9 1 C-9.66 2.32 -10.32 3.64 -11 5 C-8.69 5.33 -6.38 5.66 -4 6 C-4 6.33 -4 6.66 -4 7 C-2.35 7 -0.7 7 1 7 C1.21081851 3.10540926 1.21081851 3.10540926 0 0 Z " fill="#46301B" transform="translate(20,21)"/>
<path d="M0 0 C1.33332095 2.6666419 0.67102033 4.16680303 0 7 C2.64 7 5.28 7 8 7 C8.33 6.01 8.66 5.02 9 4 C9.33 4 9.66 4 10 4 C10.33 5.65 10.66 7.3 11 9 C12.98 8.67 14.96 8.34 17 8 C16.67 9.32 16.34 10.64 16 12 C14.63875 11.9690625 14.63875 11.9690625 13.25 11.9375 C10.57327412 11.9889755 8.53011948 12.2215017 6 13 C6 11.68 6 10.36 6 9 C3.69 8.67 1.38 8.34 -1 8 C-2.2077558 4.37673261 -1.54311128 3.35853631 0 0 Z M8 9 C9 11 9 11 9 11 Z " fill="#221F1A" transform="translate(3,9)"/>
<path d="M0 0 C3.24208567 0.35049575 4.61527704 0.56221181 6.8125 3.0625 C7.204375 3.701875 7.59625 4.34125 8 5 C7 6 7 6 3.9375 6.0625 C2.968125 6.041875 1.99875 6.02125 1 6 C-0.0625 4.125 -0.0625 4.125 -1 2 C-0.67 1.34 -0.34 0.68 0 0 Z " fill="#B96600" transform="translate(14,23)"/>
<path d="M0 0 C1.65 0 3.3 0 5 0 C5.33 1.65 5.66 3.3 6 5 C4.34385343 5.38218767 2.67542976 5.71395102 1 6 C0 5 0 5 -0.0625 2.4375 C-0.041875 1.633125 -0.02125 0.82875 0 0 Z " fill="#D5B306" transform="translate(13,13)"/>
<path d="M0 0 C2.31 0.66 4.62 1.32 7 2 C7.66 1.34 8.32 0.68 9 0 C9 1.65 9 3.3 9 5 C6.36 5 3.72 5 1 5 C0.34 3.68 -0.32 2.36 -1 1 C-0.67 0.67 -0.34 0.34 0 0 Z " fill="#C0A003" transform="translate(20,11)"/>
<path d="M0 0 C0.33 0.66 0.66 1.32 1 2 C5.455 1.505 5.455 1.505 10 1 C9.34 2.32 8.68 3.64 8 5 C5.36 5 2.72 5 0 5 C0 3.35 0 1.7 0 0 Z " fill="#C2A203" transform="translate(3,11)"/>
<path d="M0 0 C2.5625 2.1875 2.5625 2.1875 5 5 C4.8125 7.8125 4.8125 7.8125 4 10 C2.35 9.67 0.7 9.34 -1 9 C-0.01 8.01 0.98 7.02 2 6 C1.34 4.02 0.68 2.04 0 0 Z " fill="#2A2014" transform="translate(20,21)"/>
<path d="M0 0 C2.8125 -0.25 2.8125 -0.25 6 0 C8.04040776 2.04040776 9 3.08325244 9 6 C8.1646875 5.566875 8.1646875 5.566875 7.3125 5.125 C4.91505355 3.9586747 2.48403061 2.9660119 0 2 C0 1.34 0 0.68 0 0 Z " fill="#EAD318" transform="translate(14,21)"/>
<path d="M0 0 C1.98 0 3.96 0 6 0 C6 0.33 6 0.66 6 1 C4.02 1 2.04 1 0 1 C0 0.67 0 0.34 0 0 Z " fill="#313100" transform="translate(23,18)"/>
<path d="M0 0 C1.98 0 3.96 0 6 0 C6 0.33 6 0.66 6 1 C4.02 1 2.04 1 0 1 C0 0.67 0 0.34 0 0 Z " fill="#313100" transform="translate(3,18)"/>
<path d="M0 0 C3 1 3 1 3 1 Z " fill="#717100" transform="translate(18,31)"/>
<path d="M0 0 C3 1 3 1 3 1 Z " fill="#381C00" transform="translate(10,31)"/>
<path d="" fill="#1C0000" transform="translate(0,0)"/>
<path d="" fill="#1C1C00" transform="translate(0,0)"/>
<path d="" fill="#1C1C00" transform="translate(0,0)"/>
<path d="" fill="#000000" transform="translate(0,0)"/>
<path d="" fill="#3F3F00" transform="translate(0,0)"/>
<path d="" fill="#3F3F00" transform="translate(0,0)"/>
<path d="" fill="#3F3F00" transform="translate(0,0)"/>
<path d="" fill="#3F3F00" transform="translate(0,0)"/>
<path d="" fill="#7F7F00" transform="translate(0,0)"/>
<path d="" fill="#3F3F00" transform="translate(0,0)"/>
<path d="" fill="#3F3F00" transform="translate(0,0)"/>
<path d="" fill="#000000" transform="translate(0,0)"/>
<path d="" fill="#000000" transform="translate(0,0)"/>
<path d="" fill="#000000" transform="translate(0,0)"/>
<path d="" fill="#000000" transform="translate(0,0)"/>
<path d="" fill="#000000" transform="translate(0,0)"/>
<path d="" fill="#000000" transform="translate(0,0)"/>
<path d="" fill="#000000" transform="translate(0,0)"/>
<path d="" fill="#FFFF00" transform="translate(0,0)"/>
<path d="" fill="#000000" transform="translate(0,0)"/>
<path d="" fill="#000000" transform="translate(0,0)"/>
<path d="" fill="#000000" transform="translate(0,0)"/>
<path d="" fill="#000000" transform="translate(0,0)"/>
<path d="" fill="#000000" transform="translate(0,0)"/>
<path d="" fill="#000000" transform="translate(0,0)"/>
<path d="" fill="#000000" transform="translate(0,0)"/>
<path d="" fill="#000000" transform="translate(0,0)"/>
<path d="" fill="#000000" transform="translate(0,0)"/>
<path d="" fill="#000000" transform="translate(0,0)"/>
</svg>
