<?xml version="1.0" encoding="UTF-8"?>
<svg version="1.1" xmlns="http://www.w3.org/2000/svg" width="32" height="32">
<path d="M0 0 C2.97 0 5.94 0 9 0 C11.68 5.36 11.68 5.36 12 8 C11.443125 9.175625 11.443125 9.175625 10.875 10.375 C9.62492981 13.10286416 9.62492981 13.10286416 11.4375 15.9375 C12.2109375 17.4534375 12.2109375 17.4534375 13 19 C12.76868654 22.93232882 12.2012803 24.69807955 10 28 C10 28.66 10 29.32 10 30 C6.7 30 3.4 30 0 30 C-0.66 28.68 -1.32 27.36 -2 26 C-2.33 25.67 -2.66 25.34 -3 25 C-3.481594 18.73927806 -3.481594 18.73927806 -1.49609375 15.69140625 C0.38284737 12.31127458 0.30380246 10.02548127 0.1875 6.1875 C0.16042969 5.02605469 0.13335937 3.86460937 0.10546875 2.66796875 C0.07066406 1.78753906 0.03585937 0.90710937 0 0 Z M4 5 C4 6.32 4 7.64 4 9 C4.33 7.68 4.66 6.36 5 5 C4.67 5 4.34 5 4 5 Z M5 18 C5 20.31 5 22.62 5 25 C5.33 25 5.66 25 6 25 C6.33 23.02 6.66 21.04 7 19 C6.34 18.67 5.68 18.34 5 18 Z M7 21 C8 25 8 25 8 25 Z " fill="#0A5F63" transform="translate(11,1)"/>
<path d="M0 0 C2.59115742 2.17322881 3.87878348 3.62826934 4.9375 6.875 C5.01372865 10.68643234 3.86137608 12.7239781 2 16 C2 16.66 2 17.32 2 18 C-1.3 18 -4.6 18 -8 18 C-8.66 16.68 -9.32 15.36 -10 14 C-10.33 13.67 -10.66 13.34 -11 13 C-11.59227922 6.7218403 -11.59227922 6.7218403 -9 3.5625 C-8.34 3.046875 -7.68 2.53125 -7 2 C-6.87432675 8.53500898 -6.87432675 8.53500898 -7.625 11.3125 C-7.74875 11.869375 -7.8725 12.42625 -8 13 C-7.34 13.66 -6.68 14.32 -6 15 C-5.01 15 -4.02 15 -3 15 C-2.814375 13.741875 -2.62875 12.48375 -2.4375 11.1875 C-2.33308594 10.47980469 -2.22867187 9.77210937 -2.12109375 9.04296875 C-1.86095201 6.7974658 -1.86095201 6.7974658 -3 4 C-1.5625 1.8125 -1.5625 1.8125 0 0 Z M-1 9 C0 13 0 13 0 13 Z " fill="#043233" transform="translate(19,13)"/>
<path d="M0 0 C2.97 0 5.94 0 9 0 C9 0.99 9 1.98 9 3 C8.01 3 7.02 3 6 3 C6.66 3.66 7.32 4.32 8 5 C8.125 7.625 8.125 7.625 8 10 C6.68 10.33 5.36 10.66 4 11 C4 9.35 4 7.7 4 6 C3.67 6.66 3.34 7.32 3 8 C2.34 8 1.68 8 1 8 C1 9.65 1 11.3 1 13 C0.67 13 0.34 13 0 13 C0 8.71 0 4.42 0 0 Z " fill="#0C2A2B" transform="translate(11,1)"/>
<path d="M0 0 C1.05014778 2.91707716 0.92762666 4.46640599 0.4375 7.625 C0.2209375 9.295625 0.2209375 9.295625 0 11 C1.95216435 12.95216435 3.53199953 13.84826645 6 15 C4.02 15.33 2.04 15.66 0 16 C-0.309375 15.360625 -0.61875 14.72125 -0.9375 14.0625 C-1.8345163 12.06389179 -1.8345163 12.06389179 -3 11 C-3.47058824 4.76470588 -3.47058824 4.76470588 -1.5 1.5625 C-1.005 1.046875 -0.51 0.53125 0 0 Z " fill="#003235" transform="translate(11,15)"/>
<path d="M0 0 C2.875 0.1875 2.875 0.1875 6 1 C7.5 3.3125 7.5 3.3125 8 6 C7.16785605 9.14365493 6.10262102 9.93158599 3.375 11.75 C2.199375 12.36875 2.199375 12.36875 1 13 C1.33 12.278125 1.66 11.55625 2 10.8125 C3.03242213 7.90881276 3.40080901 6.04614849 3 3 C1.60414215 1.18523997 1.60414215 1.18523997 0 0 Z " fill="#227E81" transform="translate(15,3)"/>
<path d="M0 0 C1.9375 0.625 1.9375 0.625 4 2 C4.99184231 5.58589143 5.18429132 7.44712603 4 11 C3.01 11 2.02 11 1 11 C-1.125 3.375 -1.125 3.375 0 0 Z " fill="#187275" transform="translate(19,15)"/>
<path d="M0 0 C3 3.75 3 3.75 3 6 C3.99 6.33 4.98 6.66 6 7 C4 8 4 8 1.4375 7.1875 C-1 6 -1 6 -2 4 C-1.0625 1.875 -1.0625 1.875 0 0 Z " fill="#33B4B8" transform="translate(13,22)"/>
<path d="M0 0 C1.485 0.99 1.485 0.99 3 2 C3.1875 4.625 3.1875 4.625 3 7 C1.68 7.33 0.36 7.66 -1 8 C-0.67 5.36 -0.34 2.72 0 0 Z " fill="#014548" transform="translate(16,4)"/>
<path d="M0 0 C0.33 0 0.66 0 1 0 C1 1.98 1 3.96 1 6 C0.34 5.67 -0.32 5.34 -1 5 C-1.33 5.99 -1.66 6.98 -2 8 C-2.66 8 -3.32 8 -4 8 C-3.4021799 4.65220745 -2.20964398 2.57791798 0 0 Z " fill="#057A7E" transform="translate(14,18)"/>
<path d="M0 0 C1.65 0.33 3.3 0.66 5 1 C5 2.32 5 3.64 5 5 C3.02 5 1.04 5 -1 5 C-0.01 4.34 0.98 3.68 2 3 C1.34 2.67 0.68 2.34 0 2 C0 1.34 0 0.68 0 0 Z " fill="#0C1516" transform="translate(16,26)"/>
<path d="M0 0 C0.33 0 0.66 0 1 0 C1 2.31 1 4.62 1 7 C0.67 7 0.34 7 0 7 C0 4.69 0 2.38 0 0 Z " fill="#000000" transform="translate(6,19)"/>
<path d="" fill="#005555" transform="translate(0,0)"/>
<path d="" fill="#000000" transform="translate(0,0)"/>
<path d="" fill="#007171" transform="translate(0,0)"/>
<path d="" fill="#002A2A" transform="translate(0,0)"/>
<path d="" fill="#002A2A" transform="translate(0,0)"/>
<path d="" fill="#005571" transform="translate(0,0)"/>
<path d="M0 0 C2 1 2 1 2 1 Z " fill="#003F3F" transform="translate(13,31)"/>
<path d="" fill="#000000" transform="translate(0,0)"/>
<path d="" fill="#00003F" transform="translate(0,0)"/>
<path d="" fill="#003F3F" transform="translate(0,0)"/>
<path d="" fill="#000000" transform="translate(0,0)"/>
<path d="" fill="#7FAAAA" transform="translate(0,0)"/>
<path d="M0 0 C2 1 2 1 2 1 Z " fill="#003F3F" transform="translate(16,0)"/>
<path d="" fill="#000000" transform="translate(0,0)"/>
<path d="" fill="#000000" transform="translate(0,0)"/>
<path d="" fill="#000000" transform="translate(0,0)"/>
<path d="" fill="#000000" transform="translate(0,0)"/>
<path d="" fill="#000000" transform="translate(0,0)"/>
<path d="" fill="#000000" transform="translate(0,0)"/>
<path d="" fill="#000000" transform="translate(0,0)"/>
<path d="" fill="#000000" transform="translate(0,0)"/>
<path d="" fill="#000000" transform="translate(0,0)"/>
<path d="" fill="#000000" transform="translate(0,0)"/>
<path d="" fill="#007F7F" transform="translate(0,0)"/>
<path d="" fill="#000000" transform="translate(0,0)"/>
<path d="" fill="#000000" transform="translate(0,0)"/>
<path d="" fill="#000000" transform="translate(0,0)"/>
<path d="" fill="#000000" transform="translate(0,0)"/>
<path d="" fill="#00FFFF" transform="translate(0,0)"/>
<path d="" fill="#007F7F" transform="translate(0,0)"/>
<path d="" fill="#000000" transform="translate(0,0)"/>
<path d="" fill="#FFFFFF" transform="translate(0,0)"/>
<path d="" fill="#000000" transform="translate(0,0)"/>
</svg>
