<?xml version="1.0" encoding="UTF-8"?>
<svg version="1.1" xmlns="http://www.w3.org/2000/svg" width="32" height="32">
<path d="M0 0 C1.875 0.25 1.875 0.25 4 1 C5.0625 2.8125 5.0625 2.8125 6 5 C6.98218795 6.3465083 7.98021308 7.68173886 9 9 C9.84304688 8.77183594 10.68609375 8.54367187 11.5546875 8.30859375 C12.65039062 8.02113281 13.74609375 7.73367187 14.875 7.4375 C16.51082031 7.00244141 16.51082031 7.00244141 18.1796875 6.55859375 C21 6 21 6 23 7 C24 9.625 24 9.625 24 13 C22.283196 15.62508257 20.23616865 17.80920289 18 20 C18.30679687 20.60328125 18.61359375 21.2065625 18.9296875 21.828125 C20.08612063 24.17475573 21.052134 26.5626303 22 29 C18.64404172 28.40072174 16.62198774 27.15377564 14 25 C13.195625 25.639375 12.39125 26.27875 11.5625 26.9375 C7.64148693 29.59852326 3.63357199 29.79406347 -1 30 C-2.1930449 26.4208653 -1.87453326 24.64388859 -1 21 C-0.03567924 19.31243867 0.96210419 17.64333504 2 16 C2.69579454 13.80869466 2.69579454 13.80869466 3 12 C2.175 11.608125 1.35 11.21625 0.5 10.8125 C-2 9 -2 9 -2.4375 6.5625 C-2.0012965 4.00759378 -1.31518076 2.21936753 0 0 Z M16 11 C16.33 11.66 16.66 12.32 17 13 C17.33 12.34 17.66 11.68 18 11 C17.34 11 16.68 11 16 11 Z M14 12 C13.01 13.485 13.01 13.485 12 15 C12.99 15 13.98 15 15 15 C15 14.01 15 13.02 15 12 C14.67 12 14.34 12 14 12 Z M6 18 C6 18.99 6 19.98 6 21 C6.66 20.34 7.32 19.68 8 19 C7.34 18.67 6.68 18.34 6 18 Z M4 20 C3.67 20.66 3.34 21.32 3 22 C3.66 22 4.32 22 5 22 C4.67 21.34 4.34 20.68 4 20 Z M0 28 C0 28.33 0 28.66 0 29 C1.65 29 3.3 29 5 29 C5 28.67 5 28.34 5 28 C3.35 28 1.7 28 0 28 Z " fill="#1D1914" transform="translate(5,0)"/>
<path d="M0 0 C0.68359375 1.765625 0.68359375 1.765625 1 4 C-0.21484375 5.921875 -0.21484375 5.921875 -1.9375 7.75 C-2.50339844 8.36359375 -3.06929687 8.9771875 -3.65234375 9.609375 C-4.09707031 10.06828125 -4.54179687 10.5271875 -5 11 C-4.53980469 11.90492187 -4.53980469 11.90492187 -4.0703125 12.828125 C-2.91387937 15.17475573 -1.947866 17.5626303 -1 20 C-4.35595828 19.40072174 -6.37801226 18.15377564 -9 16 C-9.804375 16.639375 -10.60875 17.27875 -11.4375 17.9375 C-15.35851307 20.59852326 -19.36642801 20.79406347 -24 21 C-25.04449911 17.86650268 -24.93423645 17.01031744 -24 14 C-24 14.99 -24 15.98 -24 17 C-14.53588922 16.03185506 -8.83024592 12.21327051 -2.5 5.25 C-0.85016926 2.98903677 -0.85016926 2.98903677 0 0 Z M-23 19 C-23 19.33 -23 19.66 -23 20 C-21.35 20 -19.7 20 -18 20 C-18 19.67 -18 19.34 -18 19 C-19.65 19 -21.3 19 -23 19 Z " fill="#120E0B" transform="translate(28,9)"/>
<path d="M0 0 C0.99 0 1.98 0 3 0 C2.88292874 3.86335148 1.52362797 5.81395345 -1.0625 8.5 C-5.92848628 13.038277 -10.56898814 17.28805199 -17.5 17.3125 C-18.655 17.209375 -19.81 17.10625 -21 17 C-20.67 15.68 -20.34 14.36 -20 13 C-19.67 13.66 -19.34 14.32 -19 15 C-12.17241356 11.96396259 -6.0760168 8.5928958 -1 3 C-0.67 2.01 -0.34 1.02 0 0 Z " fill="#A29A92" transform="translate(25,9)"/>
<path d="M0 0 C4.875 4.75 4.875 4.75 6 7 C4.35 6.67 2.7 6.34 1 6 C1 6.66 1 7.32 1 8 C2.32 8.66 3.64 9.32 5 10 C-1.27692308 14.06153846 -1.27692308 14.06153846 -4.9375 13.75 C-5.618125 13.5025 -6.29875 13.255 -7 13 C-5.66666667 9.66666667 -4.33333333 6.33333333 -3 3 C-1.68 3.66 -0.36 4.32 1 5 C0.67 3.35 0.34 1.7 0 0 Z M0 8 C0 8.99 0 9.98 0 11 C0.66 10.34 1.32 9.68 2 9 C1.34 8.67 0.68 8.34 0 8 Z M-2 10 C-2.33 10.66 -2.66 11.32 -3 12 C-2.34 12 -1.68 12 -1 12 C-1.33 11.34 -1.66 10.68 -2 10 Z " fill="#4C473F" transform="translate(11,10)"/>
<path d="M0 0 C0.68359375 1.765625 0.68359375 1.765625 1 4 C-0.21484375 5.921875 -0.21484375 5.921875 -1.9375 7.75 C-2.50339844 8.36359375 -3.06929687 8.9771875 -3.65234375 9.609375 C-4.31943359 10.29773438 -4.31943359 10.29773438 -5 11 C-4.53980469 11.90492187 -4.53980469 11.90492187 -4.0703125 12.828125 C-2.91387937 15.17475573 -1.947866 17.5626303 -1 20 C-1.99 20 -2.98 20 -4 20 C-6.03576578 17.18124739 -7.65988107 14.48621903 -8 11 C-6.6015625 8.96484375 -6.6015625 8.96484375 -4.625 6.9375 C-2.26833071 4.49163406 -1.08915266 3.26745798 0 0 Z " fill="#252019" transform="translate(28,9)"/>
<path d="M0 0 C0.66 1.32 1.32 2.64 2 4 C2.33 3.34 2.66 2.68 3 2 C3.33 1.34 3.66 0.68 4 0 C5.32 0.66 6.64 1.32 8 2 C1.72307692 6.06153846 1.72307692 6.06153846 -1.9375 5.75 C-2.618125 5.5025 -3.29875 5.255 -4 5 C-3 2 -3 2 0 0 Z " fill="#33322E" transform="translate(8,18)"/>
<path d="M0 0 C3.14027363 0.33645789 4.05098295 1.05236086 6.3125 3.375 C6.869375 4.24125 7.42625 5.1075 8 6 C7.67 6.99 7.34 7.98 7 9 C6.236875 8.38125 5.47375 7.7625 4.6875 7.125 C2.00374191 4.94402948 2.00374191 4.94402948 -1 3 C-0.67 2.01 -0.34 1.02 0 0 Z " fill="#1D1813" transform="translate(4,6)"/>
<path d="M0 0 C1.32 0.33 2.64 0.66 4 1 C3.95875 1.7425 3.9175 2.485 3.875 3.25 C4.00398134 6.08758952 4.57051222 7.58773938 6 10 C5.4225 9.525625 4.845 9.05125 4.25 8.5625 C2.07417916 7.0515133 0.57397552 6.45963849 -2 6 C-1.34 4.02 -0.68 2.04 0 0 Z " fill="#676259" transform="translate(5,0)"/>
<path d="M0 0 C0 0.66 0 1.32 0 2 C-2.875 2.625 -2.875 2.625 -6 3 C-6.66 2.34 -7.32 1.68 -8 1 C-2.25 -1.125 -2.25 -1.125 0 0 Z " fill="#2E2B28" transform="translate(28,7)"/>
<path d="M0 0 C1 4 1 4 1 4 Z " fill="#000000" transform="translate(1,23)"/>
<path d="M0 0 C1 4 1 4 1 4 Z " fill="#000000" transform="translate(30,9)"/>
<path d="M0 0 C4 1 4 1 4 1 Z " fill="#000000" transform="translate(22,5)"/>
<path d="M0 0 C3 1 3 1 3 1 Z " fill="#000000" transform="translate(24,30)"/>
<path d="" fill="#000000" transform="translate(0,0)"/>
<path d="" fill="#000000" transform="translate(0,0)"/>
<path d="" fill="#3F0000" transform="translate(0,0)"/>
<path d="" fill="#3F0000" transform="translate(0,0)"/>
<path d="" fill="#000000" transform="translate(0,0)"/>
<path d="" fill="#000000" transform="translate(0,0)"/>
<path d="" fill="#000000" transform="translate(0,0)"/>
<path d="M0 0 C2 1 2 1 2 1 Z " fill="#000000" transform="translate(18,7)"/>
<path d="M0 0 C2 1 2 1 2 1 Z " fill="#2A2A00" transform="translate(20,6)"/>
<path d="" fill="#000000" transform="translate(0,0)"/>
<path d="" fill="#000000" transform="translate(0,0)"/>
<path d="" fill="#000000" transform="translate(0,0)"/>
<path d="" fill="#000000" transform="translate(0,0)"/>
<path d="" fill="#000000" transform="translate(0,0)"/>
<path d="" fill="#000000" transform="translate(0,0)"/>
<path d="" fill="#000000" transform="translate(0,0)"/>
<path d="" fill="#000000" transform="translate(0,0)"/>
<path d="" fill="#000000" transform="translate(0,0)"/>
<path d="" fill="#000000" transform="translate(0,0)"/>
<path d="" fill="#000000" transform="translate(0,0)"/>
<path d="" fill="#000000" transform="translate(0,0)"/>
<path d="" fill="#333300" transform="translate(0,0)"/>
<path d="" fill="#000000" transform="translate(0,0)"/>
<path d="" fill="#000000" transform="translate(0,0)"/>
<path d="" fill="#000000" transform="translate(0,0)"/>
<path d="" fill="#000000" transform="translate(0,0)"/>
<path d="" fill="#000000" transform="translate(0,0)"/>
<path d="" fill="#000000" transform="translate(0,0)"/>
<path d="" fill="#240000" transform="translate(0,0)"/>
<path d="" fill="#2A0000" transform="translate(0,0)"/>
<path d="" fill="#000000" transform="translate(0,0)"/>
<path d="" fill="#000000" transform="translate(0,0)"/>
<path d="" fill="#000000" transform="translate(0,0)"/>
<path d="" fill="#000000" transform="translate(0,0)"/>
<path d="" fill="#000000" transform="translate(0,0)"/>
<path d="" fill="#000000" transform="translate(0,0)"/>
<path d="" fill="#000000" transform="translate(0,0)"/>
<path d="" fill="#000000" transform="translate(0,0)"/>
<path d="" fill="#000000" transform="translate(0,0)"/>
</svg>
