<?xml version="1.0" encoding="UTF-8"?>
<svg version="1.1" xmlns="http://www.w3.org/2000/svg" width="32" height="32">
<path d="M0 0 C4.22753707 0.67640593 7.44197656 2.7174944 11 5 C11.33 5.99 11.66 6.98 12 8 C12.33 6.02 12.66 4.04 13 2 C13.99 1.67 14.98 1.34 16 1 C16.33 1.66 16.66 2.32 17 3 C17.66 2.67 18.32 2.34 19 2 C19 2.99 19 3.98 19 5 C19.886875 4.29875 20.77375 3.5975 21.6875 2.875 C25 1 25 1 27.875 1.75 C28.57625 2.1625 29.2775 2.575 30 3 C28.68 5.64 27.36 8.28 26 11 C26.66 11.33 27.32 11.66 28 12 C28.1953125 18.0546875 28.1953125 18.0546875 28 20 C27.34 20.66 26.68 21.32 26 22 C27.0209375 23.6396875 27.0209375 23.6396875 28.0625 25.3125 C29.22265625 27.17578125 29.22265625 27.17578125 30 29 C29.67 29.99 29.34 30.98 29 32 C25.04374472 30.68124824 22.79195593 29.08077896 20 26 C19.34 25.34 18.68 24.68 18 24 C17.34 26.31 16.68 28.62 16 31 C15.01 30.67 14.02 30.34 13 30 C12.67 28.02 12.34 26.04 12 24 C11.67 24.99 11.34 25.98 11 27 C9.51171875 28.203125 9.51171875 28.203125 7.6875 29.25 C6.79611328 29.78367187 6.79611328 29.78367187 5.88671875 30.328125 C3.5508436 31.15994803 2.30725794 30.7945524 0 30 C0.144375 29.18015625 0.28875 28.3603125 0.4375 27.515625 C0.623125 26.43796875 0.80875 25.3603125 1 24.25 C1.185625 23.18265625 1.37125 22.1153125 1.5625 21.015625 C2.09571643 17.84810626 2.09571643 17.84810626 2 14 C2.04125 12.80375 2.0825 11.6075 2.125 10.375 C2.38057281 6.92693874 2.38057281 6.92693874 0 5 C-0.125 2.375 -0.125 2.375 0 0 Z M18 6 C19 8 19 8 19 8 Z M4 10 C5 12 5 12 5 12 Z M4 20 C5 22 5 22 5 22 Z " fill="#935658" transform="translate(1,0)"/>
<path d="M0 0 C1.37562854 1.28965176 2.70766393 2.62689293 4 4 C4 4.66 4 5.32 4 6 C3.01 6.495 3.01 6.495 2 7 C4.31 7.66 6.62 8.32 9 9 C8.67 9.99 8.34 10.98 8 12 C7.01 11.67 6.02 11.34 5 11 C4.01 11 3.02 11 2 11 C2.66 11.33 3.32 11.66 4 12 C3.34 13.65 2.68 15.3 2 17 C3.23120499 17.11284276 3.23120499 17.11284276 4.5625 15.5625 C8.01254289 13.35093404 10.93442701 13.33879775 15 13 C15.33 11.35 15.66 9.7 16 8 C17.65 7.67 19.3 7.34 21 7 C20.34 6.34 19.68 5.68 19 5 C22.75 3.875 22.75 3.875 25 5 C25.1953125 11.0546875 25.1953125 11.0546875 25 13 C24.34 13.66 23.68 14.32 23 15 C24.0209375 16.6396875 24.0209375 16.6396875 25.0625 18.3125 C26.22265625 20.17578125 26.22265625 20.17578125 27 22 C26.67 22.99 26.34 23.98 26 25 C22.04374472 23.68124824 19.79195593 22.08077896 17 19 C16.34 18.34 15.68 17.68 15 17 C14.34 19.31 13.68 21.62 13 24 C12.01 23.67 11.02 23.34 10 23 C9.67 21.02 9.34 19.04 9 17 C8.67 17.99 8.34 18.98 8 20 C6.51171875 21.203125 6.51171875 21.203125 4.6875 22.25 C3.79611328 22.78367187 3.79611328 22.78367187 2.88671875 23.328125 C0.5508436 24.15994803 -0.69274206 23.7945524 -3 23 C-2.855625 22.18015625 -2.71125 21.3603125 -2.5625 20.515625 C-2.376875 19.43796875 -2.19125 18.3603125 -2 17.25 C-1.7215625 15.64898438 -1.7215625 15.64898438 -1.4375 14.015625 C-0.90428357 10.84810626 -0.90428357 10.84810626 -1 7 C-0.68848712 4.66365343 -0.35840222 2.32961443 0 0 Z M1 3 C2 5 2 5 2 5 Z M1 13 C2 15 2 15 2 15 Z " fill="#301617" transform="translate(4,7)"/>
<path d="M0 0 C1.37562854 1.28965176 2.70766393 2.62689293 4 4 C4 4.66 4 5.32 4 6 C3.01 6.495 3.01 6.495 2 7 C4.31 7.66 6.62 8.32 9 9 C8.67 9.99 8.34 10.98 8 12 C7.01 11.67 6.02 11.34 5 11 C4.01 11 3.02 11 2 11 C2.66 11.33 3.32 11.66 4 12 C3.34 13.65 2.68 15.3 2 17 C3.27005046 17.10411584 3.27005046 17.10411584 4.875 15.5 C7 14 7 14 10 14 C10.33 16.97 10.66 19.94 11 23 C9 20 9 20 9 17 C8.67 17.99 8.34 18.98 8 20 C6.51171875 21.203125 6.51171875 21.203125 4.6875 22.25 C3.79611328 22.78367187 3.79611328 22.78367187 2.88671875 23.328125 C0.5508436 24.15994803 -0.69274206 23.7945524 -3 23 C-2.855625 22.18015625 -2.71125 21.3603125 -2.5625 20.515625 C-2.376875 19.43796875 -2.19125 18.3603125 -2 17.25 C-1.7215625 15.64898438 -1.7215625 15.64898438 -1.4375 14.015625 C-0.90428357 10.84810626 -0.90428357 10.84810626 -1 7 C-0.68848712 4.66365343 -0.35840222 2.32961443 0 0 Z M1 3 C2 5 2 5 2 5 Z M1 13 C2 15 2 15 2 15 Z " fill="#2C1B1F" transform="translate(4,7)"/>
<path d="M0 0 C0.66 0 1.32 0 2 0 C2.33 0.66 2.66 1.32 3 2 C3.66 1.67 4.32 1.34 5 1 C5 1.99 5 2.98 5 4 C6.98 2.68 8.96 1.36 11 0 C11.66 0.33 12.32 0.66 13 1 C10.73547747 5.95364304 7.0058454 8.9822888 2 11 C-1.36768063 10.68241912 -3.57599121 9.11565098 -6.25 7.125 C-6.95640625 6.61195313 -7.6628125 6.09890625 -8.390625 5.5703125 C-9.18726563 4.79300781 -9.18726563 4.79300781 -10 4 C-10 3.01 -10 2.02 -10 1 C-5.25 2.875 -5.25 2.875 -3 4 C-2.67 4.99 -2.34 5.98 -2 7 C-1.855625 6.030625 -1.71125 5.06125 -1.5625 4.0625 C-1 1 -1 1 0 0 Z M4 5 C5 7 5 7 5 7 Z " fill="#3A1F1E" transform="translate(15,1)"/>
<path d="M0 0 C0.33 2.97 0.66 5.94 1 9 C-1 6 -1 6 -1 3 C-1.33 3.99 -1.66 4.98 -2 6 C-4.8712932 8.32115041 -7.70551865 10.13276732 -11.4375 9.75 C-11.953125 9.5025 -12.46875 9.255 -13 9 C-12.67 7.68 -12.34 6.36 -12 5 C-11.01 5 -10.02 5 -9 5 C-8.195625 4.175 -7.39125 3.35 -6.5625 2.5 C-4 0 -4 0 0 0 Z " fill="#241318" transform="translate(14,21)"/>
<path d="M0 0 C1.0725 0.309375 2.145 0.61875 3.25 0.9375 C6.73443742 2.00245541 6.73443742 2.00245541 9.3125 2.375 C11 3 11 3 12.3125 4.875 C13 7 13 7 12 10 C8.04374472 8.68124824 5.79195593 7.08077896 3 4 C2.34 3.34 1.68 2.68 1 2 C0.67 3.65 0.34 5.3 0 7 C-0.33 7 -0.66 7 -1 7 C-0.67 4.69 -0.34 2.38 0 0 Z " fill="#211217" transform="translate(18,22)"/>
<path d="M0 0 C0.66 0.33 1.32 0.66 2 1 C-0.68199752 4.67532994 -3.09064768 6.73669076 -7 9 C-7.99 10.485 -7.99 10.485 -9 12 C-11.625 12.1875 -11.625 12.1875 -14 12 C-14.33 10.35 -14.66 8.7 -15 7 C-14.28457031 7.0721875 -13.56914062 7.144375 -12.83203125 7.21875 C-9.21146161 6.93909221 -7.57602617 5.6567662 -4.6875 3.5 C-3.36298828 2.52546875 -3.36298828 2.52546875 -2.01171875 1.53125 C-1.34785156 1.0259375 -0.68398438 0.520625 0 0 Z " fill="#BC7C7E" transform="translate(27,4)"/>
<path d="M0 0 C1.2684375 0.495 1.2684375 0.495 2.5625 1 C6.20989216 2.06105954 9.22274664 2.15109013 13 2 C12.67 2.99 12.34 3.98 12 5 C11.278125 4.95875 10.55625 4.9175 9.8125 4.875 C4.3592382 5.11736719 1.06657811 7.51436162 -3 11 C-1.66666667 8.33333333 -0.33333333 5.66666667 1 3 C0.01 2.67 -0.98 2.34 -2 2 C-1.34 1.34 -0.68 0.68 0 0 Z " fill="#814547" transform="translate(7,16)"/>
<path d="M0 0 C2.475 0.99 2.475 0.99 5 2 C4.01 2.33 3.02 2.66 2 3 C2 3.66 2 4.32 2 5 C2.99 5.33 3.98 5.66 5 6 C4.67 7.32 4.34 8.64 4 10 C0.38860104 6.12435233 0.38860104 6.12435233 -1 4 C-0.8125 1.625 -0.8125 1.625 0 0 Z " fill="#814D50" transform="translate(22,16)"/>
<path d="M0 0 C0.99 0.33 1.98 0.66 3 1 C2 4 2 4 -0.4375 5.25 C-3 6 -3 6 -5 5 C-4.67 3.68 -4.34 2.36 -4 1 C-3.01 1 -2.02 1 -1 1 C-0.67 0.67 -0.34 0.34 0 0 Z " fill="#0B0A0E" transform="translate(6,25)"/>
<path d="M0 0 C1.65 0 3.3 0 5 0 C4 2 4 2 2 3 C2.33 4.65 2.66 6.3 3 8 C1.35 7.67 -0.3 7.34 -2 7 C-1.34 4.69 -0.68 2.38 0 0 Z " fill="#512123" transform="translate(20,15)"/>
<path d="M0 0 C0.66 0 1.32 0 2 0 C2 0.66 2 1.32 2 2 C3.32 2.66 4.64 3.32 6 4 C6 4.66 6 5.32 6 6 C3.6568787 5.74438677 1.32156597 5.40729228 -1 5 C-1.33 4.34 -1.66 3.68 -2 3 C-1.01 3 -0.02 3 1 3 C0.67 2.01 0.34 1.02 0 0 Z " fill="#895051" transform="translate(7,10)"/>
<path d="M0 0 C1.98 0 3.96 0 6 0 C5.67 0.99 5.34 1.98 5 3 C4.34 3 3.68 3 3 3 C3 3.66 3 4.32 3 5 C2.34 5 1.68 5 1 5 C0.67 3.35 0.34 1.7 0 0 Z " fill="#C88486" transform="translate(12,11)"/>
<path d="M0 0 C0.99 0.33 1.98 0.66 3 1 C-0.75 7.875 -0.75 7.875 -3 9 C-2.5359375 7.88625 -2.5359375 7.88625 -2.0625 6.75 C-1.1905075 4.49307824 -0.52332993 2.3549847 0 0 Z " fill="#171217" transform="translate(28,2)"/>
<path d="M0 0 C1.32 0.33 2.64 0.66 4 1 C3.67 2.98 3.34 4.96 3 7 C2.01 6.34 1.02 5.68 0 5 C-0.1875 2.375 -0.1875 2.375 0 0 Z " fill="#1E0C10" transform="translate(1,0)"/>
<path d="M0 0 C0.66 0 1.32 0 2 0 C1.67 0.99 1.34 1.98 1 3 C0.67 2.01 0.34 1.02 0 0 Z " fill="#4C0C0C" transform="translate(27,21)"/>
<path d="" fill="#550000" transform="translate(0,0)"/>
<path d="" fill="#2A0000" transform="translate(0,0)"/>
<path d="" fill="#550000" transform="translate(0,0)"/>
<path d="" fill="#000000" transform="translate(0,0)"/>
<path d="" fill="#000000" transform="translate(0,0)"/>
<path d="" fill="#000000" transform="translate(0,0)"/>
<path d="" fill="#000000" transform="translate(0,0)"/>
<path d="" fill="#000000" transform="translate(0,0)"/>
<path d="" fill="#000000" transform="translate(0,0)"/>
<path d="" fill="#3F0000" transform="translate(0,0)"/>
<path d="" fill="#7F0000" transform="translate(0,0)"/>
<path d="" fill="#000000" transform="translate(0,0)"/>
<path d="M0 0 C2 1 2 1 2 1 Z " fill="#000000" transform="translate(28,0)"/>
<path d="" fill="#000000" transform="translate(0,0)"/>
<path d="" fill="#000000" transform="translate(0,0)"/>
<path d="" fill="#000000" transform="translate(0,0)"/>
<path d="" fill="#000000" transform="translate(0,0)"/>
<path d="" fill="#000000" transform="translate(0,0)"/>
<path d="" fill="#000000" transform="translate(0,0)"/>
<path d="" fill="#000000" transform="translate(0,0)"/>
<path d="" fill="#000000" transform="translate(0,0)"/>
<path d="" fill="#000000" transform="translate(0,0)"/>
<path d="" fill="#000000" transform="translate(0,0)"/>
<path d="" fill="#000000" transform="translate(0,0)"/>
<path d="" fill="#555555" transform="translate(0,0)"/>
<path d="" fill="#000000" transform="translate(0,0)"/>
<path d="" fill="#000000" transform="translate(0,0)"/>
<path d="" fill="#000000" transform="translate(0,0)"/>
<path d="" fill="#000000" transform="translate(0,0)"/>
<path d="" fill="#000000" transform="translate(0,0)"/>
</svg>
