<?xml version="1.0" encoding="UTF-8"?>
<svg version="1.1" xmlns="http://www.w3.org/2000/svg" width="32" height="32">
<path d="M0 0 C2.61166865 0.11309021 5.22254817 0.23222548 7.83325195 0.3659668 C8.73237305 0.40141602 9.63149414 0.43686523 10.55786133 0.47338867 C15.42140913 0.71246256 19.57831568 1.19770911 24.14575195 3.0534668 C24.14575195 5.0334668 24.14575195 7.0134668 24.14575195 9.0534668 C22.14575195 9.0534668 20.14575195 9.0534668 18.14575195 9.0534668 C18.14575195 9.7134668 18.14575195 10.3734668 18.14575195 11.0534668 C12.86575195 11.0534668 7.58575195 11.0534668 2.14575195 11.0534668 C2.47575195 11.7134668 2.80575195 12.3734668 3.14575195 13.0534668 C8.09575195 13.0534668 13.04575195 13.0534668 18.14575195 13.0534668 C18.47575195 13.7134668 18.80575195 14.3734668 19.14575195 15.0534668 C20.79575195 15.0534668 22.44575195 15.0534668 24.14575195 15.0534668 C24.14575195 17.72013346 24.14575195 20.38680013 24.14575195 23.0534668 C22.82575195 23.3834668 21.50575195 23.7134668 20.14575195 24.0534668 C19.81575195 23.0634668 19.48575195 22.0734668 19.14575195 21.0534668 C18.81575195 21.7134668 18.48575195 22.3734668 18.14575195 23.0534668 C11.54575195 23.3834668 4.94575195 23.7134668 -1.85424805 24.0534668 C-5.74634697 15.29624423 -6.67929386 11.52860423 -3.85424805 3.0534668 C-2.36156219 0.06809508 -2.36156219 0.06809508 0 0 Z " fill="#1D1E25" transform="translate(5.854248046875,3.946533203125)"/>
<path d="M0 0 C0.66 0.33 1.32 0.66 2 1 C4.0374763 1.22858114 6.08040303 1.41024278 8.125 1.5625 C9.76855469 1.68818359 9.76855469 1.68818359 11.4453125 1.81640625 C12.28835937 1.87699219 13.13140625 1.93757812 14 2 C14 3.65 14 5.3 14 7 C10.7 7.33 7.4 7.66 4 8 C3.61866701 9.9914056 3.28674418 11.99279077 3 14 C4.66342837 15.66342837 6.7825709 15.36048097 9.0625 15.5625 C9.98160156 15.64628906 10.90070312 15.73007812 11.84765625 15.81640625 C12.55792969 15.87699219 13.26820312 15.93757813 14 16 C14 16.66 14 17.32 14 18 C4.36892677 18.85651837 4.36892677 18.85651837 0.375 16.1875 C-2.67298053 12.09678928 -2.56789328 9.40304722 -2.40625 4.42578125 C-2 2 -2 2 0 0 Z " fill="#A6A7AF" transform="translate(4,4)"/>
<path d="M0 0 C2.87525669 -0.05425013 5.74947646 -0.09379277 8.625 -0.125 C9.43324219 -0.14175781 10.24148437 -0.15851562 11.07421875 -0.17578125 C15.80093815 -0.21420986 19.55387702 0.17262906 24 2 C24 3.98 24 5.96 24 8 C22 8 20 8 18 8 C18 8.66 18 9.32 18 10 C15.54101345 10.08076963 13.08466258 10.14037143 10.625 10.1875 C9.57699219 10.22520508 9.57699219 10.22520508 8.5078125 10.26367188 C6.4765625 10.29296875 6.4765625 10.29296875 3 10 C2.34 9.01 1.68 8.02 1 7 C2 6 2 6 4.28515625 5.90234375 C5.65994141 5.91974609 5.65994141 5.91974609 7.0625 5.9375 C7.98160156 5.94652344 8.90070312 5.95554687 9.84765625 5.96484375 C10.55792969 5.97644531 11.26820312 5.98804688 12 6 C12 4.35 12 2.7 12 1 C8.04 1 4.08 1 0 1 C0 0.67 0 0.34 0 0 Z " fill="#484952" transform="translate(6,5)"/>
<path d="M0 0 C2.46800047 1.15173355 4.04783565 2.04783565 6 4 C8.43252661 4.46162427 8.43252661 4.46162427 11.125 4.625 C12.03507813 4.69976563 12.94515625 4.77453125 13.8828125 4.8515625 C14.58148438 4.90054687 15.28015625 4.94953125 16 5 C16 4.34 16 3.68 16 3 C17.65 3 19.3 3 21 3 C21 4.65 21 6.3 21 8 C15.19742918 9.4506427 8.81128214 9.3836386 3 8 C1.13671875 6.19921875 1.13671875 6.19921875 0 4 C0 2.68 0 1.36 0 0 Z " fill="#51575E" transform="translate(2,17)"/>
<path d="M0 0 C2.125 0.375 2.125 0.375 4 1 C4 2.98 4 4.96 4 7 C2.35 7 0.7 7 -1 7 C-1.625 4.625 -1.625 4.625 -2 2 C-1.34 1.34 -0.68 0.68 0 0 Z " fill="#333439" transform="translate(26,6)"/>
<path d="M0 0 C1.65 0 3.3 0 5 0 C5 1.65 5 3.3 5 5 C3.02 5.33 1.04 5.66 -1 6 C-0.67 4.02 -0.34 2.04 0 0 Z " fill="#5C6067" transform="translate(18,20)"/>
<path d="M0 0 C0.33 0.66 0.66 1.32 1 2 C3.02463255 2.65213292 3.02463255 2.65213292 5 3 C4.34 4.32 3.68 5.64 3 7 C2.01 6.67 1.02 6.34 0 6 C0 4.02 0 2.04 0 0 Z " fill="#8C8F9A" transform="translate(2,11)"/>
<path d="M0 0 C5.94 0 11.88 0 18 0 C18 0.33 18 0.66 18 1 C12.06 1 6.12 1 0 1 C0 0.67 0 0.34 0 0 Z " fill="#525252" transform="translate(6,3)"/>
<path d="M0 0 C2.31 0 4.62 0 7 0 C7 0.33 7 0.66 7 1 C4.69 1 2.38 1 0 1 C0 0.67 0 0.34 0 0 Z " fill="#00000C" transform="translate(6,28)"/>
<path d="M0 0 C1.98 0 3.96 0 6 0 C6 0.33 6 0.66 6 1 C4.02 1 2.04 1 0 1 C0 0.67 0 0.34 0 0 Z " fill="#000046" transform="translate(18,28)"/>
<path d="" fill="#545454" transform="translate(0,0)"/>
<path d="" fill="#545454" transform="translate(0,0)"/>
<path d="" fill="#000000" transform="translate(0,0)"/>
<path d="" fill="#3F3F3F" transform="translate(0,0)"/>
<path d="" fill="#7F7F7F" transform="translate(0,0)"/>
<path d="M0 0 C2 1 2 1 2 1 Z " fill="#000000" transform="translate(26,4)"/>
<path d="" fill="#000000" transform="translate(0,0)"/>
<path d="" fill="#000000" transform="translate(0,0)"/>
<path d="" fill="#000000" transform="translate(0,0)"/>
<path d="" fill="#000000" transform="translate(0,0)"/>
<path d="" fill="#000000" transform="translate(0,0)"/>
<path d="" fill="#7F7F7F" transform="translate(0,0)"/>
</svg>
