<?xml version="1.0" encoding="UTF-8"?>
<svg version="1.1" xmlns="http://www.w3.org/2000/svg" width="32" height="32">
<path d="M0 0 C2.43816585 -0.0809723 4.87364384 -0.14046972 7.3125 -0.1875 C8.34793945 -0.22520508 8.34793945 -0.22520508 9.40429688 -0.26367188 C14.52016091 -0.33781483 14.52016091 -0.33781483 16.84765625 1.30078125 C19.88601748 5.78107663 22.2886198 9.59351046 23 15 C23.20625 15.763125 23.4125 16.52625 23.625 17.3125 C24.14552521 21.04293065 23.56756129 24.27932041 23 28 C22.13375 27.814375 21.2675 27.62875 20.375 27.4375 C16.86887715 26.98300259 14.46536567 27.40022517 11 28 C5.51240978 28.24209957 0.41394357 27.94744012 -5 27 C-5.66 27.33 -6.32 27.66 -7 28 C-8.51948052 18.03896104 -8.51948052 18.03896104 -6 13 C-5.896875 12.071875 -5.79375 11.14375 -5.6875 10.1875 C-4.89093223 6.49432216 -3.48098038 4.79110293 -1 2 C-0.67 1.34 -0.34 0.68 0 0 Z M1 9 C1.33 9.99 1.66 10.98 2 12 C2 11.01 2 10.02 2 9 C1.67 9 1.34 9 1 9 Z M14 9 C15 12 15 12 15 12 Z " fill="#1A3933" transform="translate(8,1)"/>
<path d="M0 0 C3.18970398 1.73983854 5.44695493 3.44695493 8 6 C8.125 8.625 8.125 8.625 8 11 C4.5980513 13.09350689 1.94727588 13.17942163 -2 13 C-2 13.99 -2 14.98 -2 16 C-2.99 15.67 -3.98 15.34 -5 15 C-5 15.99 -5 16.98 -5 18 C-4.34 18.66 -3.68 19.32 -3 20 C-4.32 19.67 -5.64 19.34 -7 19 C-7 19.33 -7 19.66 -7 20 C-4.36 20 -1.72 20 1 20 C1.33 20.66 1.66 21.32 2 22 C0.23243706 22.39012425 -1.53924783 22.7616098 -3.3125 23.125 C-4.29863281 23.33382813 -5.28476563 23.54265625 -6.30078125 23.7578125 C-9 24 -9 24 -12 22 C-12.6875 18.875 -12.6875 18.875 -13 16 C-12.34 16.33 -11.68 16.66 -11 17 C-10.67 16.01 -10.34 15.02 -10 14 C-10.804375 13.855625 -11.60875 13.71125 -12.4375 13.5625 C-15 13 -15 13 -16 12 C-16.5 9.3125 -16.5 9.3125 -16 6 C-11.90867618 0.31831833 -6.77081898 -1.4772696 0 0 Z M-11 7 C-10.67 7.99 -10.34 8.98 -10 10 C-10 9.01 -10 8.02 -10 7 C-10.33 7 -10.66 7 -11 7 Z M2 7 C3 10 3 10 3 10 Z " fill="#61D7BB" transform="translate(20,3)"/>
<path d="M0 0 C2.41695751 2.41695751 2.45961668 3.68050247 3 7 C3.20625 7.763125 3.4125 8.52625 3.625 9.3125 C4.14552521 13.04293065 3.56756129 16.27932041 3 20 C1.02 19.34 -0.96 18.68 -3 18 C-3 17.34 -3 16.68 -3 16 C-7.06368679 15.22596442 -10.86425173 14.9015298 -15 15 C-15 14.01 -15 13.02 -15 12 C-14.67 12 -14.34 12 -14 12 C-13.67 10.68 -13.34 9.36 -13 8 C-12.01 8 -11.02 8 -10 8 C-10.33 7.34 -10.66 6.68 -11 6 C-9.906875 6.04125 -8.81375 6.0825 -7.6875 6.125 C-3.91107771 6.32074666 -3.91107771 6.32074666 -1 4 C-0.27617533 1.94074861 -0.27617533 1.94074861 0 0 Z " fill="#205846" transform="translate(28,9)"/>
<path d="M0 0 C2 2 2 2 2 6 C5.71599191 6.20086443 6.77208445 6.1519437 10 4 C12.6875 4.375 12.6875 4.375 15 5 C15 8 15 8 14 10 C13.01 9.67 12.02 9.34 11 9 C11 9.99 11 10.98 11 12 C11.66 12.66 12.32 13.32 13 14 C11.68 13.67 10.36 13.34 9 13 C9 13.33 9 13.66 9 14 C11.64 14 14.28 14 17 14 C17.33 14.66 17.66 15.32 18 16 C16.23243706 16.39012425 14.46075217 16.7616098 12.6875 17.125 C11.70136719 17.33382813 10.71523437 17.54265625 9.69921875 17.7578125 C7 18 7 18 4 16 C3.3125 12.875 3.3125 12.875 3 10 C3.66 10.33 4.32 10.66 5 11 C5.33 10.01 5.66 9.02 6 8 C5.195625 7.855625 4.39125 7.71125 3.5625 7.5625 C1 7 1 7 0 6 C-0.04080783 4.00041636 -0.04254356 1.99954746 0 0 Z " fill="#389677" transform="translate(4,9)"/>
<path d="M0 0 C1.1653125 0.01417969 2.330625 0.02835937 3.53125 0.04296875 C5.27921875 0.05263672 5.27921875 0.05263672 7.0625 0.0625 C10.03125 0.23046875 10.03125 0.23046875 12.03125 1.23046875 C12.03125 3.54046875 12.03125 5.85046875 12.03125 8.23046875 C9.16400314 7.65701938 8.1697985 7.36901725 6.03125 5.23046875 C2.73410207 5.56018354 1.4085661 5.85315265 -0.96875 8.23046875 C-3.09375 7.85546875 -3.09375 7.85546875 -4.96875 7.23046875 C-5.09375 4.85546875 -5.09375 4.85546875 -4.96875 2.23046875 C-2.96875 0.23046875 -2.96875 0.23046875 0 0 Z M-2.96875 4.23046875 C-2.63875 5.22046875 -2.30875 6.21046875 -1.96875 7.23046875 C-1.96875 6.24046875 -1.96875 5.25046875 -1.96875 4.23046875 C-2.29875 4.23046875 -2.62875 4.23046875 -2.96875 4.23046875 Z M10.03125 4.23046875 C11.03125 7.23046875 11.03125 7.23046875 11.03125 7.23046875 Z " fill="#24785A" transform="translate(11.96875,5.76953125)"/>
<path d="M0 0 C2.41695751 2.41695751 2.45961668 3.68050247 3 7 C3.309375 8.1446875 3.309375 8.1446875 3.625 9.3125 C4.14552521 13.04293065 3.56756129 16.27932041 3 20 C1.02 19.34 -0.96 18.68 -3 18 C-2.01 17.67 -1.02 17.34 0 17 C-0.020625 15.72125 -0.04125 14.4425 -0.0625 13.125 C-0.125 9.25 -0.125 9.25 1 7 C0.34 6.67 -0.32 6.34 -1 6 C-0.67 4.02 -0.34 2.04 0 0 Z " fill="#152D27" transform="translate(28,9)"/>
<path d="M0 0 C0.68449219 0.33773438 1.36898438 0.67546875 2.07421875 1.0234375 C5.59618446 2.19899348 8.13201818 1.99676584 11.8125 1.625 C12.97394531 1.51414062 14.13539062 1.40328125 15.33203125 1.2890625 C16.21246094 1.19367187 17.09289062 1.09828125 18 1 C18 1.99 18 2.98 18 4 C10.71444771 5.53380048 3.28555229 5.53380048 -4 4 C-2.68 2.68 -1.36 1.36 0 0 Z " fill="#122622" transform="translate(7,24)"/>
<path d="M0 0 C0.66 0.66 1.32 1.32 2 2 C0.66666667 3.33333333 -0.66666667 4.66666667 -2 6 C-1.67 6.66 -1.34 7.32 -1 8 C-1.99 9.485 -1.99 9.485 -3 11 C-4.98 8.03 -6.96 5.06 -9 2 C-7.329375 2.061875 -7.329375 2.061875 -5.625 2.125 C-1.95633975 2.41121859 -1.95633975 2.41121859 0 0 Z " fill="#257A58" transform="translate(26,13)"/>
<path d="M0 0 C0 3 0 3 -1 5 C-1.99 4.67 -2.98 4.34 -4 4 C-4 4.99 -4 5.98 -4 7 C-3.34 7.66 -2.68 8.32 -2 9 C-4.86724686 8.42655063 -5.8614515 8.1385485 -8 6 C-7.01 4.68 -6.02 3.36 -5 2 C-5.66 1.34 -6.32 0.68 -7 0 C-4.3333581 -1.33332095 -2.83319697 -0.67102033 0 0 Z " fill="#39AA81" transform="translate(19,14)"/>
<path d="M0 0 C2.5 1.6875 2.5 1.6875 5 4 C5.3125 6.75 5.3125 6.75 5 9 C3.02 9.33 1.04 9.66 -1 10 C-0.34 9.67 0.32 9.34 1 9 C1 6.69 1 4.38 1 2 C0.34 1.67 -0.32 1.34 -1 1 C-0.67 0.67 -0.34 0.34 0 0 Z " fill="#4BC5A1" transform="translate(23,5)"/>
<path d="M0 0 C0 1.65 0 3.3 0 5 C-0.66 4.67 -1.32 4.34 -2 4 C-2.33 5.32 -2.66 6.64 -3 8 C-3.33 8 -3.66 8 -4 8 C-4.33 5.69 -4.66 3.38 -5 1 C-3 0 -3 0 0 0 Z " fill="#1B493B" transform="translate(10,17)"/>
<path d="M0 0 C2.0625 0.4375 2.0625 0.4375 4 1 C3.67 2.32 3.34 3.64 3 5 C1.68 5.33 0.36 5.66 -1 6 C-1.042721 4.33388095 -1.04063832 2.66617115 -1 1 C-0.67 0.67 -0.34 0.34 0 0 Z M0 2 C0.33 2.99 0.66 3.98 1 5 C1 4.01 1 3.02 1 2 C0.67 2 0.34 2 0 2 Z " fill="#0F1718" transform="translate(9,8)"/>
<path d="M0 0 C3.3125 -0.1875 3.3125 -0.1875 7 0 C7.99 0.99 8.98 1.98 10 3 C6.7 2.67 3.4 2.34 0 2 C0 1.34 0 0.68 0 0 Z " fill="#B9F3DD" transform="translate(13,3)"/>
<path d="M0 0 C1.32 0.66 2.64 1.32 4 2 C4 2.99 4 3.98 4 5 C1.36 4.67 -1.28 4.34 -4 4 C-2.68 2.68 -1.36 1.36 0 0 Z " fill="#0B0A1B" transform="translate(7,24)"/>
<path d="M0 0 C2.5 2.3125 2.5 2.3125 5 5 C5 5.99 5 6.98 5 8 C3.0625 7.375 3.0625 7.375 1 6 C0.25 2.875 0.25 2.875 0 0 Z " fill="#226B50" transform="translate(7,19)"/>
<path d="M0 0 C1.4540625 0.0309375 1.4540625 0.0309375 2.9375 0.0625 C3.2675 0.7225 3.5975 1.3825 3.9375 2.0625 C3.2775 2.7225 2.6175 3.3825 1.9375 4.0625 C1.6075 3.4025 1.2775 2.7425 0.9375 2.0625 C-0.0525 2.0625 -1.0425 2.0625 -2.0625 2.0625 C-2.7225 3.3825 -3.3825 4.7025 -4.0625 6.0625 C-4.105221 4.39638095 -4.10313832 2.72867115 -4.0625 1.0625 C-3.0625 0.0625 -3.0625 0.0625 0 0 Z " fill="#298F66" transform="translate(11.0625,6.9375)"/>
<path d="M0 0 C1.98 0 3.96 0 6 0 C6 0.33 6 0.66 6 1 C4.02 1 2.04 1 0 1 C0 0.67 0 0.34 0 0 Z " fill="#000000" transform="translate(13,30)"/>
<path d="M0 0 C1 4 1 4 1 4 Z " fill="#000000" transform="translate(0,10)"/>
<path d="M0 0 C4 1 4 1 4 1 Z " fill="#6A6A6A" transform="translate(17,0)"/>
<path d="M0 0 C3 1 3 1 3 1 Z " fill="#000000" transform="translate(26,29)"/>
<path d="M0 0 C3 1 3 1 3 1 Z " fill="#000000" transform="translate(3,29)"/>
<path d="" fill="#000000" transform="translate(0,0)"/>
<path d="M0 0 C3 1 3 1 3 1 Z " fill="#717171" transform="translate(11,0)"/>
<path d="M0 0 C2 1 2 1 2 1 Z " fill="#000000" transform="translate(19,29)"/>
<path d="M0 0 C2 1 2 1 2 1 Z " fill="#000000" transform="translate(11,29)"/>
<path d="" fill="#003F3F" transform="translate(0,0)"/>
<path d="" fill="#000000" transform="translate(0,0)"/>
<path d="" fill="#007F7F" transform="translate(0,0)"/>
<path d="" fill="#000000" transform="translate(0,0)"/>
<path d="" fill="#000000" transform="translate(0,0)"/>
<path d="" fill="#000000" transform="translate(0,0)"/>
<path d="" fill="#000055" transform="translate(0,0)"/>
<path d="" fill="#005555" transform="translate(0,0)"/>
<path d="" fill="#00FFFF" transform="translate(0,0)"/>
<path d="" fill="#000000" transform="translate(0,0)"/>
<path d="" fill="#000000" transform="translate(0,0)"/>
<path d="" fill="#000000" transform="translate(0,0)"/>
<path d="" fill="#000000" transform="translate(0,0)"/>
<path d="" fill="#000000" transform="translate(0,0)"/>
<path d="" fill="#000000" transform="translate(0,0)"/>
<path d="" fill="#000000" transform="translate(0,0)"/>
<path d="" fill="#000000" transform="translate(0,0)"/>
</svg>
