<?xml version="1.0" encoding="UTF-8"?>
<svg version="1.1" xmlns="http://www.w3.org/2000/svg" width="32" height="32">
<path d="M0 0 C1.32 0 2.64 0 4 0 C4.433125 1.093125 4.86625 2.18625 5.3125 3.3125 C6.93343489 7.23287275 6.93343489 7.23287275 10 10 C13.62535976 10.2503577 13.62535976 10.2503577 17 10 C18.61051271 14.83153813 17.14973655 17.54128715 15 22 C14.71125 22.928125 14.4225 23.85625 14.125 24.8125 C13 27 13 27 10.875 28.3125 C7.19569497 29.19233381 3.74589705 29.20657521 0 29 C-1.0828125 28.97292969 -1.0828125 28.97292969 -2.1875 28.9453125 C-4.3125 28.8125 -4.3125 28.8125 -8 28 C-9.8125 25.875 -9.8125 25.875 -11 23 C-11.5775 21.865625 -12.155 20.73125 -12.75 19.5625 C-14.08461178 15.75885642 -14.02977363 13.83824716 -13 10 C-10.36 10 -7.72 10 -5 10 C-4.360625 8.906875 -3.72125 7.81375 -3.0625 6.6875 C-2.52302734 5.76517578 -2.52302734 5.76517578 -1.97265625 4.82421875 C-0.86098753 2.86180445 -0.86098753 2.86180445 0 0 Z M-2 14 C-2 14.66 -2 15.32 -2 16 C-1.34 15.67 -0.68 15.34 0 15 C-0.66 14.67 -1.32 14.34 -2 14 Z M2 23 C3 25 3 25 3 25 Z " fill="#222417" transform="translate(14,0)"/>
<path d="M0 0 C0.66 0 1.32 0 2 0 C5.29754717 3.75669931 7.96859609 7.30418876 8.0625 12.375 C6.38486842 16.51973684 6.38486842 16.51973684 4 18 C1.0625 18.5 1.0625 18.5 -2 18 C-4.4375 15.8125 -4.4375 15.8125 -6 13 C-6.12845363 8.24721558 -2.89365371 3.63284251 0 0 Z M-3 11 C-3 11.66 -3 12.32 -3 13 C-2.34 12.67 -1.68 12.34 -1 12 C-1.66 11.67 -2.32 11.34 -3 11 Z " fill="#3A3E16" transform="translate(15,3)"/>
<path d="M0 0 C1.98 0 3.96 0 6 0 C6.25523438 0.93972656 6.25523438 0.93972656 6.515625 1.8984375 C6.75796875 2.71570313 7.0003125 3.53296875 7.25 4.375 C7.48203125 5.18710937 7.7140625 5.99921875 7.953125 6.8359375 C9.2214892 9.45785454 10.32423308 9.99382318 13 11 C13 11.66 13 12.32 13 13 C17.86154897 10.29507989 17.86154897 10.29507989 20.91015625 5.88671875 C21.37548059 3.94614391 21.69906987 1.97276418 22 0 C23.98 0 25.96 0 28 0 C27.58188612 4.87799527 25.63597431 6.84882227 22 10 C16.91905355 14.02241594 16.91905355 14.02241594 13.4375 13.9375 C7.08768568 11.49526372 5.1359175 8.83929465 2 3 C1.34 2.67 0.68 2.34 0 2 C0 1.34 0 0.68 0 0 Z " fill="#94A404" transform="translate(2,13)"/>
<path d="M0 0 C0.391875 0.556875 0.78375 1.11375 1.1875 1.6875 C5.65061129 7.53055731 5.65061129 7.53055731 12.3125 10 C17.89368988 10.35465755 22.05152753 8.47423624 27 6 C26.8125 8.375 26.8125 8.375 26 11 C21.96909278 13.56512278 17.61475281 13.25449004 13 13 C11.9171875 12.97292969 11.9171875 12.97292969 10.8125 12.9453125 C8.6875 12.8125 8.6875 12.8125 5 12 C3.125 9.6875 3.125 9.6875 2 7 C1.608125 6.29875 1.21625 5.5975 0.8125 4.875 C-0 3 -0 3 0 0 Z " fill="#121415" transform="translate(1,16)"/>
<path d="M0 0 C0.66 0 1.32 0 2 0 C3.32421875 1.6796875 3.32421875 1.6796875 4.6875 3.875 C5.37392578 4.95394531 5.37392578 4.95394531 6.07421875 6.0546875 C6.37972656 6.69664063 6.68523438 7.33859375 7 8 C6.67 8.66 6.34 9.32 6 10 C2.14354879 10.22036864 -0.49223216 9.60355101 -4 8 C-2.87548273 5.0280615 -1.77706209 2.66559313 0 0 Z " fill="#D4DE02" transform="translate(15,3)"/>
<path d="M0 0 C1.98 0 3.96 0 6 0 C6.27263672 0.95712891 6.27263672 0.95712891 6.55078125 1.93359375 C6.80214844 2.75988281 7.05351562 3.58617187 7.3125 4.4375 C7.55613281 5.26121094 7.79976562 6.08492187 8.05078125 6.93359375 C8.36402344 7.61550781 8.67726563 8.29742187 9 9 C9.99 9.33 10.98 9.66 12 10 C12 10.66 12 11.32 12 12 C8.46491897 11.70540991 7.23796556 11.25118587 4.75 8.625 C3 6 3 6 2 3 C1.34 2.67 0.68 2.34 0 2 C0 1.34 0 0.68 0 0 Z " fill="#B6C418" transform="translate(2,13)"/>
<path d="M0 0 C3.22688865 -0.0896358 5.88952145 0.19729586 9 1 C10.32 1 11.64 1 13 1 C12.67 2.98 12.34 4.96 12 7 C11.34 6.01 10.68 5.02 10 4 C9.21625 4 8.4325 4 7.625 4 C4.42357272 4 3.34389459 3.08346185 1 1 C2.30155006 5.07964281 2.30155006 5.07964281 4 9 C2.0625 8.3125 2.0625 8.3125 0 7 C-0.93580311 4.12060581 -1.37245106 2.74490212 0 0 Z " fill="#647506" transform="translate(10,11)"/>
<path d="M0 0 C0.33 0.66 0.66 1.32 1 2 C1.99 2.33 2.98 2.66 4 3 C5.09765625 4.55859375 5.09765625 4.55859375 6.0625 6.4375 C7.26019398 8.74149765 8.13152817 10.13152817 10 12 C7 12 7 12 4.4375 9.75 C1.44144777 6.36983851 0 4.52973579 0 0 Z " fill="#4B5D04" transform="translate(1,13)"/>
<path d="M0 0 C1.98 0 3.96 0 6 0 C5.67 1.65 5.34 3.3 5 5 C4.01 5 3.02 5 2 5 C1.34 5.66 0.68 6.32 0 7 C0 4.69 0 2.38 0 0 Z " fill="#A1B414" transform="translate(24,13)"/>
<path d="M0 0 C-0.38597015 2.79828356 -0.80136573 3.8205884 -2.9375 5.75 C-5 7 -5 7 -7 7 C-7.66 5.35 -8.32 3.7 -9 2 C-2.25 0 -2.25 0 0 0 Z M-6 4 C-5 6 -5 6 -5 6 Z " fill="#0F0F1C" transform="translate(22,19)"/>
<path d="M0 0 C1.32 0 2.64 0 4 0 C5.71767682 3.98188718 7.41037341 7.96479403 9 12 C5.91910327 9.22719294 4.31224548 6.93673644 3 3 C2.01 3.33 1.02 3.66 0 4 C-0.33 3.34 -0.66 2.68 -1 2 C-0.67 1.34 -0.34 0.68 0 0 Z " fill="#191A11" transform="translate(14,0)"/>
<path d="M0 0 C0.33 1.32 0.66 2.64 1 4 C-1.25 6.0625 -1.25 6.0625 -4 8 C-6.3125 7.75 -6.3125 7.75 -8 7 C-5.42215154 4.35247996 -3.08351902 2.05567935 0 0 Z " fill="#323F09" transform="translate(29,17)"/>
<path d="M0 0 C0.66 0.37125 1.32 0.7425 2 1.125 C2.99 1.455 3.98 1.785 5 2.125 C4.67 2.785 4.34 3.445 4 4.125 C0.14354879 4.34536864 -2.49223216 3.72855101 -6 2.125 C-4.54698731 -0.78102537 -2.97034626 -1.29952649 0 0 Z " fill="#B5C802" transform="translate(17,8.875)"/>
<path d="M0 0 C0.99 0.33 1.98 0.66 3 1 C3.33 1.99 3.66 2.98 4 4 C4.99 4.33 5.98 4.66 7 5 C7 5.66 7 6.32 7 7 C4.625 6.6875 4.625 6.6875 2 6 C0 3 0 3 0 0 Z " fill="#C9D305" transform="translate(7,18)"/>
<path d="M0 0 C4 1 4 1 4 1 Z " fill="#000000" transform="translate(14,30)"/>
<path d="M0 0 C4 1 4 1 4 1 Z " fill="#000000" transform="translate(10,29)"/>
<path d="M0 0 C3 1 3 1 3 1 Z " fill="#000000" transform="translate(18,29)"/>
<path d="M0 0 C2 1 2 1 2 1 Z " fill="#000000" transform="translate(8,28)"/>
<path d="" fill="#000000" transform="translate(0,0)"/>
<path d="" fill="#000000" transform="translate(0,0)"/>
<path d="" fill="#000000" transform="translate(0,0)"/>
<path d="" fill="#000000" transform="translate(0,0)"/>
<path d="" fill="#000000" transform="translate(0,0)"/>
<path d="" fill="#000000" transform="translate(0,0)"/>
<path d="" fill="#7F7F00" transform="translate(0,0)"/>
<path d="" fill="#007F00" transform="translate(0,0)"/>
<path d="" fill="#000000" transform="translate(0,0)"/>
<path d="" fill="#000000" transform="translate(0,0)"/>
<path d="" fill="#000000" transform="translate(0,0)"/>
<path d="" fill="#000000" transform="translate(0,0)"/>
<path d="" fill="#000000" transform="translate(0,0)"/>
<path d="" fill="#000000" transform="translate(0,0)"/>
<path d="" fill="#000000" transform="translate(0,0)"/>
<path d="" fill="#000000" transform="translate(0,0)"/>
<path d="" fill="#000000" transform="translate(0,0)"/>
<path d="" fill="#000000" transform="translate(0,0)"/>
</svg>
